<?xml version="1.0" encoding="UTF-8"?>
<svg width="1440px" height="280px" viewBox="0 0 1440 280" version="1.1" xmlns="http://www.w3.org/2000/svg" xmlns:xlink="http://www.w3.org/1999/xlink">
    <!-- Generator: Sketch 49.2 (51160) - http://www.bohemiancoding.com/sketch -->
    <title>Group 3</title>
    <desc>Created with Sketch.</desc>
    <defs>
        <linearGradient x1="-179.331584%" y1="49.7200528%" x2="220.502257%" y2="50.0269554%" id="linearGradient-1">
            <stop stop-color="#FFFFFF" offset="0%"></stop>
            <stop stop-color="#FFFFFF" stop-opacity="0" offset="100%"></stop>
        </linearGradient>
    </defs>
    <g id="Desktop" stroke="none" stroke-width="1" fill="none" fill-rule="evenodd">
        <g id="Home_Scene-01---Landing" transform="translate(0.000000, -660.000000)">
            <g id="SCENE-01-Home">
                <g id="Kelp_SurfaceScene-FPO-Copy">
                    <g id="Layer_1-2" transform="translate(0.000000, 659.795210)">
                        <g id="Group-3">
                            <g id="Boat" transform="translate(210.426935, 0.000000)">
                                <path d="M139.166678,81.921555 L133.933495,0.399861159" id="Shape" stroke="#DCDCDC" stroke-width="1.48"></path>
                                <path d="M139.166739,81.921555 L138.991739,79.1925026" id="Shape" stroke="#B23F48" stroke-width="1.48"></path>
                                <path d="M138.616869,73.3395349 L134.298369,6.05789656" id="Shape" stroke="#B23F48" stroke-width="1.48" stroke-dasharray="11.73"></path>
                                <path d="M134.113494,3.13391184 L133.938494,0.399861159" id="Shape" stroke="#B23F48" stroke-width="1.48"></path>
                                <path d="M135.752864,73.9143353 C135.752864,73.9143353 135.727872,69.1359944 135.99278,67.5415481 C136.257688,65.9471017 136.697536,66.0120791 137.9521,65.4072891 C139.331621,64.74252 144.674766,62.6032628 144.674766,62.6032628 L144.714752,77.7729955 L135.752864,73.9143353 Z" id="Shape" fill="#5B6566" fill-rule="nonzero" opacity="0.2"></path>
                                <path d="M144.814717,77.7979868 C144.814717,77.7979868 144.764734,64.5225963 144.814717,63.477959 C144.8647,62.4333218 144.314891,61.8285318 142.950364,61.2137452 C141.585838,60.5989587 135.452968,58.1847969 134.278376,57.8249219 C133.103783,57.4650469 131.44436,57.3250955 130.249774,57.7199583 C129.055189,58.1148212 123.752031,59.489344 122.432489,59.8892051 C121.112947,60.2890663 120.483166,60.4839986 120.233252,61.7085734 C119.983339,62.9331482 118.433877,71.8600486 118.433877,71.8600486 L132.493995,72.5398126 L144.814717,77.7979868 Z" id="Shape" fill="#5B6566" fill-rule="nonzero" opacity="0.5"></path>
                                <path d="M241.955988,93.6474835 C241.456161,93.8724054 240.276571,93.9873655 238.157306,93.9223881 C228.980493,93.65748 157.505311,84.9954877 151.572371,84.0508157 C147.073933,83.3310656 146.714058,86.1150989 145.939327,88.4043041 C145.469353,89.7925335 145.077212,91.2059074 144.764734,92.6378341" id="Shape" stroke="#C6C6C6" stroke-width="2.19"></path>
                                <path d="M177.138494,97.2612287 C177.138494,97.2612287 180.302395,89.8438042 180.637279,89.1040611 C180.972162,88.3643179 181.816869,87.3346755 185.41562,88.0744186" id="Shape" stroke="#C6C6C6" stroke-width="1.48"></path>
                                <path d="M213.570843,104.733634 C213.570843,104.733634 217.569455,95.0270045 217.974314,94.0573412 C218.379174,93.0876779 219.443804,91.7381465 223.83228,92.6378341" id="Shape" stroke="#C6C6C6" stroke-width="1.48"></path>
                                <path d="M3.16390142,65.1223881 L3.64890142,69.8757376" id="Shape" stroke="#201E25" stroke-width="2.74"></path>
                                <path d="M79.0925373,59.5143353 C79.0925373,59.5143353 90.3436307,61.3586949 92.5878514,62.1784103 C95.0139219,63.1737209 97.3113298,64.4575171 99.4304755,66.0020826 C100.755016,67.0467199 100.530094,72.7397431 100.335161,75.7836862 C100.140229,78.8276293 99.835335,82.3414092 99.4704616,83.3460604 C99.2507247,83.802866 99.1591639,84.3107694 99.2055536,84.8155502 L82.2764318,82.6712947 L79.0925373,59.5143353 Z" id="Shape" fill="#595E5C" fill-rule="nonzero"></path>
                                <path d="M24.8413745,112.485942 L24.1166262,112.335994 L24.6164526,108.032489 L26.4108296,107.742589 L26.1259285,107.072822 L22.2522735,106.278098 L22.6171468,104.418743 L24.0666435,104.693648 C24.2587522,104.781118 24.4793249,104.781118 24.6714335,104.693648 L25.0662964,104.533704 C25.0662964,104.533704 25.3911836,104.308782 25.6410968,103.094203 C25.7212843,102.719336 25.766463,102.337827 25.77605,101.954599 C25.7786043,101.601835 25.5317066,101.296351 25.1862548,101.224852 L23.3169039,100.844984 L24.3165568,95.7017702 L16.1293995,94.8070809 L14.7298855,100.140229 C14.7298855,100.140229 12.1207914,100.91496 11.5509892,101.469767 C11.3257129,101.679292 11.2094616,101.980876 11.2358186,102.287398 C11.2621755,102.593919 11.4282044,102.871231 11.6859424,103.039222 C12.0958001,103.274141 13.6852482,104.263797 13.6852482,104.263797 L15.7895175,104.698646 C15.7895175,104.698646 16.4742798,104.838598 16.4742798,105.093509 C16.4742798,105.348421 16.9291218,108.857202 16.0194377,110.051788 L12.5206526,109.551961 C12.4056925,109.377022 12.660604,107.642624 12.1157931,106.81791 C11.5709823,105.993197 10.8712253,104.673655 11.1661229,106.21312 C11.3498058,107.24274 11.4451199,108.286179 11.451024,109.332037 L10.1214856,109.062131 C10.1214856,109.062131 9.56167997,110.681569 9.4317251,111.011454 C9.30177022,111.34134 8.70697674,111.476293 8.30711558,111.446303 C7.90725443,111.416314 7.47740368,112.500937 7.67233599,112.540923 C7.992866,112.665865 8.30362187,112.81456 8.60201319,112.985769 L8.81693856,113.985422 C8.81693856,113.985422 10.8162444,113.930441 10.9511975,114.215342 C11.0984884,114.653876 11.2104733,115.103487 11.2860812,115.559875 L11.7859077,115.664839 C12.2777174,115.28958 12.8723393,115.073354 13.4903159,115.045054 C14.2950364,115.105033 13.9901423,115.279972 13.9901423,115.279972 L13.8251996,116.249636 C13.8251996,116.249636 10.2914266,118.748768 9.85157931,119.08865 C9.41173204,119.428532 9.8815689,119.788407 9.8815689,119.788407 L12.5406456,120.333218 L21.9123915,115.289969 L24.4115238,115.789795 C24.4115238,115.789795 24.9663311,115.614856 25.2462339,114.265325 C25.5261368,112.915793 24.8413745,112.485942 24.8413745,112.485942 Z" id="Shape" fill="#201E25" fill-rule="nonzero"></path>
                                <path d="M46.0790003,58.5096841 L44.7694551,55.5107254 C44.4801901,54.8497708 44.0129702,54.2821852 43.4199236,53.8712947 L41.2656716,52.3718153 L38.721555,51.0472753 C36.3765808,50.2234406 33.984893,49.5391475 31.559042,48.9979868 C28.2052065,48.3132246 23.8717112,47.698438 23.8717112,47.698438 C23.3345353,47.5675266 22.7684437,47.6294429 22.2722666,47.8733773 L16.9940993,50.4824714 C16.0954537,50.9195522 15.4313834,51.7259233 15.174731,52.6917043 C14.9448108,53.5664006 14.6998959,54.5110725 14.4549809,55.4707393 L14.2450538,55.4707393 C14.0586951,55.4864263 13.9014812,55.6157795 13.8501909,55.7956265 L13.4703228,57.0801805 C13.4417175,57.1791124 13.4556541,57.2854909 13.5087785,57.3737155 C13.561903,57.46194 13.6494046,57.5240213 13.7502256,57.5450191 L13.9201666,57.5800069 C13.8401944,57.8948976 13.7652204,58.2147865 13.6902464,58.5246789 L13.3853523,58.5246789 C13.2502589,58.5122945 13.1283626,58.6058935 13.1054495,58.7396043 L12.8805276,59.8342242 C12.8323822,60.044948 12.9251471,60.2627438 13.1104478,60.3740368 L13.2454009,60.4590073 C13.1754252,60.7838945 13.1054495,61.0987851 13.0454703,61.4036793 C12.4256855,64.402638 11.9858383,68.7011454 12.3956959,70.5305102 C12.8055536,72.359875 37.7169039,75.723707 37.7169039,75.723707 C38.0810866,74.9696895 38.8851613,74.5314688 39.7162096,74.6340854 L40.7158625,74.7640403 L43.7148212,70.9903506 C44.0610325,70.5526837 44.2975328,70.0385527 44.4045817,69.4908712 L46.2789309,60.3690385 C46.4033912,59.7433644 46.3336312,59.0945958 46.0790003,58.5096841 Z" id="Shape" fill="#37353B" fill-rule="nonzero"></path>
                                <path d="M7.82228393,70.7304408 C9.03186394,66.8567858 9.70662964,64.6475529 9.70662964,64.6475529 C9.70662964,64.6475529 9.96154113,62.9581395 12.1607775,63.4079833 C14.3600139,63.8578271 52.8816383,67.8714335 55.2208261,68.1213468 C57.5600139,68.37126 57.8299202,70.2406109 56.9852135,72.2399167 C56.1405068,74.2392225 54.5160708,78.2378341 54.5160708,78.2378341" id="Shape" stroke="#E2E2E2" stroke-width="2.19"></path>
                                <path d="M170.440819,95.8917043 C170.440819,95.8917043 176.348768,81.146824 176.938563,79.6823325 C177.528358,78.217841 179.097813,76.1485595 185.435613,77.4481083" id="Shape" stroke="#DCDCDC" stroke-width="2.19"></path>
                                <path d="M219.423811,105.508365 C222.42277,95.8967025 224.776952,89.0140923 225.121833,87.7295384 C225.466713,86.4449844 226.171468,85.7302326 227.216106,86.1700798" id="Shape" stroke="#DCDCDC" stroke-width="2.19"></path>
                                <path d="M237.417563,111.096425 C238.72211,103.349115 239.781742,95.1469629 239.99167,93.7524471 C240.111628,92.9777161 240.386532,92.0280458 238.49219,91.0083999" id="Shape" stroke="#DCDCDC" stroke-width="2.19"></path>
                                <path d="M69.1060049,79.9722319 C70.1356473,74.9739674 74.7390489,64.0277681 75.3438389,62.5532801 C75.8436654,61.3437001 78.0329052,60.0541479 78.8126345,59.6542867 C78.9906688,59.5611326 79.1939832,59.5278311 79.3924332,59.5593197 C80.4220757,59.7242624 83.8059007,60.284068 84.9405068,60.7089205 C86.2800417,61.208747 86.5549462,61.7085734 86.4399861,63.7078792 C86.325026,65.707185 85.6402638,74.664075 85.6202707,75.8786532 C85.5237019,77.094416 85.0462192,78.2487697 84.2557445,79.1775078 C83.5242331,80.3053593 82.8567435,81.4734662 82.2564387,82.676293 L69.1060049,79.9722319 Z" id="Shape" fill="#727574" fill-rule="nonzero"></path>
                                <path d="M61.1987504,78.8176328 C61.6286012,76.7283582 62.2633808,75.4488025 62.8231864,75.5637626 C63.382992,75.6787227 69.8207567,77.2681708 69.8207567,77.2681708 L69.0210344,80.4220757 L61.1987504,78.8176328 Z" id="Shape" fill="#757977" fill-rule="nonzero"></path>
                                <path d="M84.2757376,79.162513 L91.8930927,80.7269698 C91.8930927,80.7269698 97.3162096,81.2267963 98.1859077,81.1768136 C99.0556057,81.126831 106.298091,83.6309615 106.298091,83.6309615 L105.86824,85.7152378 C105.86824,85.7152378 81.826588,83.5110031 82.261437,82.6712947 C82.6313086,81.9715377 84.2757376,79.162513 84.2757376,79.162513 Z" id="Shape" fill="#727574" fill-rule="nonzero"></path>
                                <path d="M105.86824,85.7152378 L108.652274,72.1349531 C108.742254,71.7119232 109.124894,71.4159585 109.556959,71.4351961 L132.493995,72.5398126 L127.380771,89.0740715 L105.86824,85.7152378 Z" id="Shape" fill="#C8C8C8" fill-rule="nonzero"></path>
                                <path d="M127.610691,89.1190559 L140.961055,91.5881985 C141.065039,91.6077754 141.166831,91.5449676 141.195974,91.4432489 L145.034641,78.027907 C145.065611,77.9260918 145.013494,77.8175135 144.914682,77.7779938 L132.703922,72.6297813 C132.651249,72.6056679 132.590707,72.6055865 132.537969,72.6295582 C132.485232,72.6535298 132.445484,72.6991975 132.429018,72.7547379 L127.430753,88.8541479 C127.41425,88.9135758 127.424715,88.9772546 127.45937,89.0282748 C127.494025,89.079295 127.549364,89.1124939 127.610691,89.1190559 Z" id="Shape" fill="#9C9C9C" fill-rule="nonzero"></path>
                                <polygon id="Shape" fill="#666666" fill-rule="nonzero" points="112.390975 71.5701493 112.905797 69.0760153 118.803749 69.7307879 118.433877 71.8600486"></polygon>
                                <polyline id="Shape" stroke="#333333" stroke-width="1.64" stroke-linecap="round" stroke-linejoin="round" points="115.195002 69.6308226 114.185352 66.5818813 116.914405 67.1416869 118.19396 69.8857341"></polyline>
                                <path d="M132.813884,0.869698022 C131.151858,1.8639829 129.305123,2.51017023 127.385769,2.76903853 C125.731343,2.98896217 124.996598,4.86830961 124.631725,5.26817077 C124.266852,5.66803193 122.092607,7.40742798 121.902673,7.64734467 C121.712739,7.88726137 121.857688,9.24678931 122.217563,9.53169039 C122.577438,9.81659146 123.767025,11.5309962 123.52211,12.7355779 C123.291541,13.956253 123.154524,15.1927531 123.112253,16.4342936 C123.186601,17.1204588 123.35478,17.793172 123.612079,18.4335994 C123.612079,18.4335994 126.940923,17.5089205 127.565706,17.5639014 C128.381204,17.5130365 129.132801,17.105236 129.619993,16.4492884 C129.94488,15.8844846 132.294065,13.6352655 132.843874,11.301076 C133.393683,8.9668865 133.843527,4.01860465 133.988476,3.34883721 C134.133426,2.67906977 133.693579,0.349878514 133.693579,0.349878514 L132.813884,0.869698022 Z" id="Shape" fill="#D73F4D" fill-rule="nonzero"></path>
                                <path d="M132.379035,1.58944811 C131.987217,2.70770873 131.653553,3.84550345 131.379382,4.99826449 C130.991916,6.4679115 130.449042,7.89211699 129.759944,9.24678931 C129.175618,10.3507295 128.447896,11.3725657 127.595696,12.2857341 C127.03589,12.8755293 125.066574,14.1001041 124.73169,14.6499132 C124.522746,14.9730148 124.260833,15.2585844 123.956959,15.4946199 L123.127247,15.7445331 C123.089079,16.1434835 123.089079,16.5451663 123.127247,16.9441166 C123.212218,17.3039917 123.572093,18.443596 123.572093,18.443596 C123.572093,18.443596 125.316487,18.3886151 125.59639,17.9187782 C125.876293,17.4489413 126.740993,15.5595974 127.625686,15.344672 C128.214859,15.1832264 128.773696,14.9266003 129.280111,14.5849358 C129.633576,13.9731149 129.901002,13.3154828 130.074835,12.6306144 C130.104825,12.0658105 131.734259,9.05185699 132.04915,7.52738632 C132.36404,6.00291565 133.123776,2.06428323 133.22874,1.77938216 C133.324015,1.41728977 133.399105,1.05018497 133.453662,0.679763971 L132.379035,1.58944811 Z" id="Shape" fill="#FFFFFF" fill-rule="nonzero"></path>
                                <path d="M125.646373,4.04859424 C125.646373,4.04859424 126.051232,5.70801805 126.191184,6.22783756 C126.331135,6.74765706 126.870948,6.94758764 126.076224,6.78764318 C125.281499,6.62769872 125.281499,6.78764318 124.53176,6.47275252 C123.78202,6.15786185 122.727386,7.06254773 122.727386,7.06254773 L124.426796,5.60305449 L125.646373,4.04859424 Z" id="Shape" fill="#A20032" fill-rule="nonzero" opacity="0.4"></path>
                                <path d="M133.658591,5.54807359 C133.658591,5.54807359 133.253731,5.69302326 133.108782,6.41277334 C132.963832,7.13252343 131.799236,11.1161402 131.649288,11.5509892 C131.418473,12.3698954 131.251366,13.2054331 131.149462,14.0501215 C131.099479,14.6199236 131.44436,14.3950017 131.44436,14.3950017 C131.44436,14.3950017 132.259077,13.020479 132.444012,12.6506074 C132.628948,12.2807359 132.973829,10.866227 132.973829,10.866227 L133.658591,5.54807359 Z" id="Shape" fill="#A20032" fill-rule="nonzero" opacity="0.4"></path>
                                <path d="M90.6035404,83.5959736 C90.6035404,83.5959736 94.2972579,75.4338077 95.6767789,71.9800069 C97.0562999,68.5262062 99.5504339,67.8564387 102.174523,68.221312 C104.798612,68.5861854 184.390975,77.348143 192.948004,78.2628254 C201.505033,79.1775078 214.190628,81.2617841 219.058938,82.9461992 C223.927247,84.6306144 237.827421,90.6385283 240.276571,91.823117 C241.80604,92.5678584 242.810691,93.2676154 241.965984,93.6474835" id="Shape" stroke="#E2E2E2" stroke-width="2.19"></path>
                                <path d="M226.056508,111.376328 L236.787782,114.25033 C235.38327,114.640194 233.938771,114.930094 232.564249,115.424922 C223.722319,118.59882 220.368483,120.423186 213.780771,121.827699 C207.193058,123.232211 188.859424,125.536411 188.859424,125.536411 L226.056508,111.376328 Z" id="Shape" fill="#909090" fill-rule="nonzero"></path>
                                <path d="M3.83866713,72.6147865 L4.05859077,78.1928497 C4.03628254,78.6670224 4.10064713,79.1412878 4.24852482,79.5923638 L8.15716765,91.5881985 C8.47995723,92.5865884 9.31053659,93.3371578 10.336411,93.5575148 C22.8020826,96.2715724 102.274488,113.580562 125.556404,118.778757 C150.847622,124.421798 200.070531,105.313433 200.070531,105.313433 L3.83866713,72.6147865 Z" id="Shape" fill="#FFFFFF" fill-rule="nonzero"></path>
                                <path d="M226.056508,109.376328 C215.785075,115.114335 204.608955,119.752725 197.911281,121.956959 C189.35925,124.765984 177.628323,128.529677 162.888442,128.599653 C154.191004,128.602022 145.536261,127.383897 137.177369,124.980909 C116.369594,119.412843 82.016522,111.455606 35.7575842,101.059216 C34.683911,100.815342 33.7033752,100.266936 32.9335647,99.479764 L31.5340507,98.0402638 C31.1113611,97.6037713 30.6000604,97.2629041 30.0345713,97.0406109 L22.6871225,94.246581 C22.6871225,94.246581 54.0912183,100.969247 83.1661229,107.347032 C100.535092,111.160708 117.039361,115.024367 125.591392,116.783756 C148.453454,121.477126 200.105519,103.318431 200.105519,103.318431 L209.92211,105.042832 L226.056508,109.376328 Z" id="Shape" fill="#B4B4B4" fill-rule="nonzero"></path>
                                <path d="M0.669767442,69.6808053 L0.374869837,70.1456439 C0.15523704,70.4858879 0.0697413172,70.8955549 0.134953141,71.2952447 L0.229920167,71.8750434 C0.261373385,72.0619899 0.40784701,72.2084635 0.594793474,72.2399167 L193.862687,104.288789 C200.070531,105.318431 226.056508,111.376328 226.056508,111.376328 L238.857064,114.805137 L239.47185,111.806178 L227.945852,107.692607 L227.815897,107.652621 L200.215481,100.535092 L200.060535,100.500104 L1.19458521,69.4308921 C0.985274144,69.4008625 0.778386011,69.4993806 0.669767442,69.6808053 Z" id="Shape" fill="#DCDCDC" fill-rule="nonzero"></path>
                                <path d="M14.8798334,55.4057619 L14.2350573,55.4657411 C14.0486986,55.481428 13.8914847,55.6107812 13.8401944,55.7906283 L13.4603263,57.0751822 C13.431721,57.1741141 13.4456575,57.2804927 13.498782,57.3687172 C13.5519064,57.4569418 13.6394081,57.5190231 13.7402291,57.5400208 L14.6249219,57.7199583 L22.6571329,58.3547379 C23.9566817,58.449705 31.4590767,60.3840333 31.4590767,60.3840333 C31.4590767,60.3840333 25.3162096,57.3500868 23.8617147,56.9752169 C22.4072197,56.6003471 14.8798334,55.4057619 14.8798334,55.4057619 Z" id="Shape" fill="#C44551" fill-rule="nonzero" opacity="0.7"></path>
                                <path d="M237.573065,91.20479 L238.677681,91.5996529 C240.315105,92.1775967 241.376918,93.7642148 241.286775,95.4982992 L238.56772,341.737799" id="Shape-Copy" stroke="url(#linearGradient-1)" stroke-width="3" opacity="0.6"></path>
                            </g>
                            <rect id="Rectangle" fill="#D8D8D8" x="1439" y="279" width="1" height="1"></rect>
                            <rect id="Rectangle-Copy" fill="#D8D8D8" x="0" y="279" width="1" height="1"></rect>
                        </g>
                    </g>
                </g>
            </g>
        </g>
    </g>
</svg>