<?xml version="1.0" encoding="UTF-8"?>
<svg width="94px" height="46px" viewBox="0 0 94 46" version="1.1" xmlns="http://www.w3.org/2000/svg" xmlns:xlink="http://www.w3.org/1999/xlink">
    <!-- Generator: Sketch 49 (51002) - http://www.bohemiancoding.com/sketch -->
    <title>cc_sectionicon_challenge</title>
    <desc>Created with Sketch.</desc>
    <defs></defs>
    <g id="Desktop" stroke="none" stroke-width="1" fill="none" fill-rule="evenodd" opacity="0.8">
        <g id="Home_Scene-02---About-the-Challenge" transform="translate(-339.000000, -141.000000)" fill="#FFFFFF" fill-rule="nonzero">
            <g id="cc_sectionicon_challenge" transform="translate(339.000000, 141.000000)">
                <g id="Group" transform="translate(0.000000, 41.000000)">
                    <path d="M2.45,3.89 C32.27,4.11 62.13,5.43 91.93,3.89 C93.85,3.79 93.86,0.79 91.93,0.89 C62.13,2.43 32.27,1.11 2.45,0.89 C1.62157288,0.89 0.95,1.56157288 0.95,2.39 C0.95,3.21842712 1.62157288,3.89 2.45,3.89 Z" id="Shape"></path>
                </g>
                <g id="Group" transform="translate(13.000000, 17.000000)">
                    <path d="M30.54,21.09 C29.21,22 17.74,11.78 16.38,10.78 L3,0.39 C1.51,-0.76 -0.46,1.05 0.88,2.51 C8.44,10.78 16.17,18.98 26.17,24.33 L27.33,21.59 L5.33,16.09 C3.46,15.62 2.66,18.51 4.53,18.98 L26.58,24.48 C28.18,24.88 29.28,22.56 27.73,21.74 C17.9,16.51 10.39,8.49 3,0.39 L0.88,2.51 L20.55,17.78 C22.99,19.67 28.46,26.19 32.05,23.73 C33.63,22.64 32.14,20.04 30.54,21.13 L30.54,21.09 Z" id="Shape"></path>
                </g>
                <g id="Group" transform="translate(21.000000, 7.000000)">
                    <path d="M23.92,29.44 L20.11,1.44 C19.89,-0.23 17.11,0.16 17.17,1.84 L18.69,29.19 C18.7087921,29.7871943 19.0757121,30.317987 19.6277503,30.5465654 C20.1797885,30.7751437 20.8145373,30.6591045 21.25,30.25 C24.83,27.17 22.88,23.06 20.07,20.25 C17.52,17.65 14.01,15.43 13.68,11.43 C13.46,8.77 14.56,7.05 12.86,4.68 C12.4402636,3.96479125 11.5202088,3.72526359 10.805,4.145 C10.0897912,4.56473641 9.85026359,5.48479125 10.27,6.2 C13.4667014,13.5616631 15.983839,21.2001045 17.79,29.02 L20.53,27.78 L3.4,4.89 C2.26,3.37 -0.34,4.89 0.81,6.41 L17.94,29.3 C18.3377524,29.917162 19.1217906,30.158761 19.7979256,29.872514 C20.4740607,29.5862671 20.846293,28.8551521 20.68,28.14 C18.7975669,20.071019 16.1799642,12.1914324 12.86,4.6 L10.27,6.12 C11.56,7.92 10.47,10.66 10.8,12.69 C11.0475708,14.031896 11.5757637,15.3063745 12.35,16.43 C13.96,18.92 22.79,24.96 19.13,28.1 L21.69,29.16 L20.17,1.78 L17.17,2.17 L20.98,30.17 C21.23,32.08 24.12,31.27 23.87,29.38 L23.92,29.44 Z" id="Shape"></path>
                </g>
                <g id="Group" transform="translate(42.000000, 0.000000)">
                    <path d="M4,32.78 L1.94,35.08 L4.5,36.14 C6,24.42 11.33,13.48 11.08,1.47 C11.08,-0.17 8.52,-0.62 8.14,1.08 L3.42,21.87 C2.71,25.02 1.98,28.17 1.28,31.33 C0.9,33.02 0.45,34.09 1.2,35.64 C1.47065184,36.1005526 1.96581342,36.3824138 2.5,36.38 C3.16168325,36.444647 3.80937713,36.1605707 4.21,35.63 C4.68106004,35.1290797 4.77406247,34.3810166 4.44,33.78 L4.3,33.51 C3.4,31.8 0.8,33.32 1.71,35.03 L1.85,35.3 L2.09,33.48 L4.17,32.09 L4.6,30.2 C4.96312784,28.9586244 5.25032601,27.6962883 5.46,26.42 L7.39,17.91 L11,1.87 L8,1.47 C8.25,13.47 2.89,24.47 1.41,36.17 C1.24,37.47 3.15,38.17 3.97,37.23 L6.03,34.93 C7.4,33.5 5.29,31.37 4,32.78 Z" id="Shape"></path>
                </g>
                <g id="Group" transform="translate(44.000000, 14.000000)">
                    <path d="M3.11,24.44 C7.93014529,16.993934 13.2771443,9.9024766 19.11,3.22 L16.76,1.4 C13.1309907,8.93682742 8.34661956,15.8603321 2.58,21.92 C1.25,23.31 3.36,25.44 4.7,24.04 C10.6637992,17.8040851 15.616844,10.6748047 19.38,2.91 C20.07,1.48 18.21,-0.22 17,1.09 C10.9883614,7.96895158 5.4744053,15.2674243 0.5,22.93 C-0.55,24.55 2.04,26.06 3.09,24.44 L3.11,24.44 Z" id="Shape"></path>
                </g>
                <g id="Group" transform="translate(40.000000, 17.000000)">
                    <path d="M3.47,20.38 L13.26,2.63 L10.52,1.47 C9.74808736,6.85160159 8.62231409,12.1764758 7.15,17.41 C6.95686116,18.1977921 7.42495635,18.9964101 8.20668046,19.2128043 C8.98840457,19.4291986 9.80054039,18.9849698 10.04,18.21 C11.5170824,12.9776503 12.6429231,7.65245749 13.41,2.27 C13.64,0.71 11.56,-0.51 10.67,1.11 L0.88,18.86 C-0.06,20.55 2.53,22.07 3.47,20.38 Z" id="Shape"></path>
                </g>
                <g id="Group" transform="translate(40.000000, 30.000000)">
                    <path d="M2.77,10.36 L36.45,3.07 L35.66,0.18 C24.48,3.62 13.29,6.98 1.75,8.96 C0.08,9.25 0.47,11.96 2.14,11.96 L5,11.78 C6.92,11.69 6.93,8.69 5,8.78 L2.19,8.92 L2.59,11.86 C14.14,9.86 25.33,6.52 36.5,3.08 C37.2583452,2.83013552 37.6880447,2.03000705 37.477508,1.25981614 C37.2669714,0.489625225 36.4899985,0.0193483662 35.71,0.19 L2,7.46 C0.11,7.87 0.91,10.77 2.8,10.36 L2.77,10.36 Z" id="Shape"></path>
                </g>
                <g id="Group" transform="translate(46.000000, 25.000000)">
                    <path d="M3.2,10.56 C7.91311472,7.77761391 12.8150771,5.32830346 17.87,3.23 L16.72,0.49 C12.5076116,3.38386322 8.58292328,6.67564533 5,10.32 C3.65,11.7 5.77,13.82 7.12,12.44 C10.5127557,8.96894847 14.2334272,5.8343413 18.23,3.08 C19.53,2.19 18.75,-0.36 17.08,0.34 C11.77572,2.51552568 6.63276381,5.06528238 1.69,7.97 C1.00776218,8.4015891 0.789469245,9.29572154 1.19607199,9.99313949 C1.60267474,10.6905575 2.4883166,10.9410831 3.2,10.56 Z" id="Shape"></path>
                </g>
                <g id="Group" transform="translate(43.000000, 36.000000)">
                    <path d="M1.48,3.48 C8.83151746,5.38268293 16.4074975,6.27753669 24,6.14 C25.92,6.14 25.93,3.14 24,3.14 C16.6948029,3.26952692 9.4055794,2.41177334 2.33,0.59 C0.46,0.11 -0.34,3 1.53,3.48 L1.48,3.48 Z" id="Shape"></path>
                </g>
            </g>
        </g>
    </g>
</svg>