<?xml version="1.0" encoding="UTF-8"?>
<svg width="38px" height="62px" viewBox="0 0 38 62" version="1.1" xmlns="http://www.w3.org/2000/svg" xmlns:xlink="http://www.w3.org/1999/xlink">
    <!-- Generator: Sketch 49 (51002) - http://www.bohemiancoding.com/sketch -->
    <title>cc_sectionicon_restoration</title>
    <desc>Created with Sketch.</desc>
    <defs></defs>
    <g id="Desktop" stroke="none" stroke-width="1" fill="none" fill-rule="evenodd" opacity="0.8">
        <g id="Home_Scene-07---The-History" transform="translate(-361.000000, -172.000000)" fill="#FFFFFF" fill-rule="nonzero">
            <g id="cc_sectionicon_restoration" transform="translate(360.000000, 172.000000)">
                <g id="Group" transform="translate(5.000000, 42.000000)">
                    <path d="M4.74,17.4 C5.23078243,12.2417106 4.86244917,7.03773604 3.65,2 C3.2,0.13 0.31,0.92 0.75,2.8 C1.90103671,7.58613806 2.239083,12.5317553 1.75,17.43 C1.56,19.35 4.57,19.33 4.75,17.43 L4.74,17.4 Z" id="Shape"></path>
                </g>
                <g id="Group" transform="translate(13.000000, 15.000000)">
                    <path d="M6.88,44.93 C6.58726795,30.7050176 5.51231089,16.5069047 3.66,2.4 C3.41,0.52 0.41,0.49 0.66,2.4 C2.51231089,16.5069047 3.58726795,30.7050176 3.88,44.93 C3.88,46.86 6.88,46.86 6.88,44.93 Z" id="Shape"></path>
                </g>
                <g id="Group" transform="translate(22.000000, 0.000000)">
                    <path d="M9.4,59.93 C9.4,50.51 9.4,41.04 8.23,31.69 C6.94,21.56 3.33,11.77 4.09,1.44 C4.23,-0.48 1.23,-0.48 1.09,1.44 C0.34,11.59 3.77,21.14 5.14,31.08 C6.45,40.62 6.4,50.31 6.4,59.93 C6.4,60.7584271 7.07157288,61.43 7.9,61.43 C8.72842712,61.43 9.4,60.7584271 9.4,59.93 Z" id="Shape"></path>
                </g>
                <g id="Group" transform="translate(0.000000, 50.000000)">
                    <path d="M6.06,2.86 L3.56,0.86 C2.96188477,0.306069752 2.03811523,0.306069752 1.44,0.86 C1.15542959,1.14336236 0.995457648,1.52840998 0.995457648,1.93 C0.995457648,2.33159002 1.15542959,2.71663764 1.44,3 L3.94,5 C4.53811523,5.55393025 5.46188477,5.55393025 6.06,5 C6.63534987,4.40655897 6.63534987,3.46344103 6.06,2.87 L6.06,2.86 Z" id="Shape"></path>
                </g>
                <g id="Group" transform="translate(7.000000, 45.000000)">
                    <path d="M3.44,5.82 C3.52125674,5.40799617 3.69193773,5.01884351 3.94,4.68 C4.07752914,4.51185152 4.22798708,4.35470657 4.39,4.21 C4.39,4.21 4.61,4.07 4.66,4.04 C4.71,4.01 5.06,3.83 4.9,3.89 C5.72433083,3.67009743 6.21597142,2.82536949 6,2 C5.75936508,1.21782269 4.93620557,0.772871602 4.15,1 C2.37985638,1.66693071 1.05194544,3.1631684 0.6,5 C0.39026473,5.78175664 0.829932302,6.59074497 1.6,6.84 C2.38239613,7.05521031 3.19499127,6.61358252 3.44,5.84 L3.44,5.82 Z" id="Shape"></path>
                </g>
                <g id="Group" transform="translate(8.000000, 29.000000)">
                    <path d="M9.36,3.61 C6.88651585,2.92295353 4.52782663,1.8750216 2.36,0.5 C0.72,-0.5 -0.79,2.07 0.84,3.09 C3.24216047,4.59377623 5.84913078,5.74232517 8.58,6.5 C9.36779213,6.69313884 10.1664101,6.22504365 10.3828043,5.44331954 C10.5991986,4.66159543 10.1549698,3.84945961 9.38,3.61 L9.36,3.61 Z" id="Shape"></path>
                </g>
                <g id="Group" transform="translate(14.000000, 17.000000)">
                    <path d="M3.3,14.21 C6.19706031,10.9757114 7.77444561,6.77172974 7.72,2.43 C7.72,1.60157288 7.04842712,0.93 6.22,0.93 C5.39157288,0.93 4.72,1.60157288 4.72,2.43 C4.79682227,5.98060493 3.53284281,9.42976923 1.18,12.09 C-0.09,13.53 2.02,15.66 3.3,14.21 Z" id="Shape"></path>
                </g>
                <g id="Group" transform="translate(10.000000, 39.000000)">
                    <path d="M5.63,2 C5.08968355,1.51384623 4.43663997,1.17013908 3.73,1 C3.43,0.89 3.12,0.78 2.82,0.65 C3.15,0.79 2.69,0.57 2.64,0.55 C2.4,0.5 2.82,0.78 2.64,0.55 C2.05436491,-0.0349067561 1.10563509,-0.0349067561 0.52,0.55 C-0.0489157438,1.1421625 -0.0489157438,2.0778375 0.52,2.67 C1.05674174,3.15574088 1.70646028,3.4995073 2.41,3.67 C2.72,3.78 3.03,3.89 3.33,4.02 C3,3.88 3.46,4.1 3.51,4.12 C3.75,4.12 3.32,3.89 3.51,4.12 C4.09787977,4.69945747 5.04212023,4.69945747 5.63,4.12 C6.19891574,3.5278375 6.19891574,2.5921625 5.63,2 Z" id="Shape"></path>
                </g>
                <g id="Group" transform="translate(17.000000, 41.000000)">
                    <path d="M2.84,8.21 L6.33,2.71 C7.33,1.07 4.77,-0.43 3.74,1.19 L0.25,6.7 C-0.75,8.33 1.8,9.84 2.84,8.21 Z" id="Shape"></path>
                </g>
                <g id="Group" transform="translate(13.000000, 49.000000)">
                    <path d="M3.79,2.17 L3.29,1.17 C2.87137524,0.488970382 1.99450462,0.252215316 1.29,0.63 C0.61740163,1.0548841 0.382651192,1.92433016 0.75,2.63 L1.25,3.63 C1.50908991,4.11385767 2.01175903,4.41757445 2.56060083,4.42187571 C3.10944263,4.42617697 3.61681016,4.13037583 3.88345174,3.65063831 C4.15009333,3.17090078 4.13342781,2.58383828 3.84,2.12 L3.79,2.17 Z" id="Shape"></path>
                </g>
                <g id="Group" transform="translate(28.000000, 16.000000)">
                    <path d="M3.84,13.3 C4.57564524,9.63991867 5.74733521,6.08120413 7.33,2.7 C8.15,0.96 5.56,-0.56 4.74,1.19 C3.04264947,4.79920422 1.78691061,8.59999673 1,12.51 C0.61,14.39 3.51,15.2 3.89,13.3 L3.84,13.3 Z" id="Shape"></path>
                </g>
                <g id="Group" transform="translate(20.000000, 21.000000)">
                    <path d="M8.31,7.16 C6.59,5.05333333 4.82,3 3,1 C1.69,-0.43 -0.42,1.69 0.88,3.12 C2.72,5.12 4.5,7.21 6.22,9.33 C7.44,10.83 9.55,8.7 8.34,7.21 L8.31,7.16 Z" id="Shape"></path>
                </g>
                <g id="Group" transform="translate(15.000000, 3.000000)">
                    <path d="M10.1,9.83 C7.82666667,7.07 5.66666667,4.22333333 3.62,1.29 C2.51,-0.28 -0.09,1.22 1,2.81 C3.2,5.93666667 5.53333333,8.98333333 8,11.95 C9.22,13.44 11.34,11.31 10.12,9.83 L10.1,9.83 Z" id="Shape"></path>
                </g>
                <g id="Group" transform="translate(25.000000, 10.000000)">
                    <path d="M4,7.43 C3.94396587,5.96932874 4.23527639,4.51620331 4.85,3.19 C5.68,1.46 3.09,-0.06 2.26,1.68 C1.38972342,3.46954478 0.957825104,5.44050934 1,7.43 C1.06,9.35 4.06,9.36 4,7.43 Z" id="Shape"></path>
                </g>
                <g id="Group" transform="translate(28.000000, 30.000000)">
                    <path d="M2.92,12.32 C6.1643714,9.51345935 8.60725082,5.89744574 10,1.84 C10.63,0.01 7.74,-0.77 7.1,1.04 C5.85049847,4.59851489 3.6760093,7.76015312 0.8,10.2 C-0.67,11.46 1.46,13.58 2.92,12.32 Z" id="Shape"></path>
                </g>
                <g id="Group" transform="translate(22.000000, 37.000000)">
                    <path d="M8.55,7.37 L3.07,0.85 C1.83,-0.63 -0.28,1.5 1,3 L6.48,9.52 C7.72,11 9.84,8.87 8.6,7.4 L8.55,7.37 Z" id="Shape"></path>
                </g>
                <g id="Group" transform="translate(29.000000, 44.000000)">
                    <path d="M3.07,7.5 L6.57,3 C7.1338144,2.40579324 7.1338144,1.47420676 6.57,0.88 C5.98436491,0.295093244 5.03563509,0.295093244 4.45,0.88 L1,5.38 C0.446069752,5.97811523 0.446069752,6.90188477 1,7.5 C1.58787977,8.07945747 2.53212023,8.07945747 3.12,7.5 L3.07,7.5 Z" id="Shape"></path>
                </g>
                <g id="Group" transform="translate(23.000000, 51.000000)">
                    <path d="M5.88,1.05 L2.36,0.1 C1.57220787,-0.0931388374 0.773589877,0.374956348 0.557195659,1.15668046 C0.340801442,1.93840457 0.785030234,2.75054039 1.56,2.99 L5.08,3.94 C5.86779213,4.13313884 6.66641012,3.66504365 6.88280434,2.88331954 C7.09919856,2.10159543 6.65496977,1.28945961 5.88,1.05 Z" id="Shape"></path>
                </g>
            </g>
        </g>
    </g>
</svg>