<?xml version="1.0" encoding="UTF-8"?>
<svg width="59px" height="40px" viewBox="0 0 59 40" version="1.1" xmlns="http://www.w3.org/2000/svg" xmlns:xlink="http://www.w3.org/1999/xlink">
    <!-- Generator: Sketch 49 (51002) - http://www.bohemiancoding.com/sketch -->
    <title>Asset/Logo.CC_KelpChallene_SmallIdentity/Leaves</title>
    <desc>Created with Sketch.</desc>
    <defs></defs>
    <g id="Symbols" stroke="none" stroke-width="1" fill="none" fill-rule="evenodd">
        <g id="Asset/CC_KelpChallene_SmallIdentity" fill="#1B6067" fill-rule="nonzero">
            <g id="Asset/Logo.CC_KelpChallene_SmallIdentity/Leaves">
                <path d="M2.66,5.15 C2.61133376,4.79793097 2.72819227,4.44314174 2.97655922,4.18890785 C3.22492617,3.93467397 3.57689088,3.80956541 3.93,3.85 L5.35,3.85 C5.70310912,3.80956541 6.05507383,3.93467397 6.30344078,4.18890785 C6.55180773,4.44314174 6.66866624,4.79793097 6.62,5.15 L6.62,12.79 L9.5,12.79 L14.14,4.79 C14.4154714,4.21383077 15.0124995,3.86194005 15.65,3.9 L17.17,3.9 C18.17,3.9 18.56,4.58 18.07,5.44 L12.75,14.3 L12.75,14.36 L18.47,24.26 C18.99,25.16 18.59,25.81 17.57,25.81 L15.87,25.81 C15.2272891,25.8477026 14.6259804,25.4916645 14.35,24.91 L9.5,16.22 L6.62,16.22 L6.62,24.51 C6.67289269,24.8629499 6.55744246,25.2203017 6.30804516,25.4755903 C6.05864785,25.7308788 5.70408841,25.8546393 5.35,25.81 L3.93,25.81 C3.57591159,25.8546393 3.22135215,25.7308788 2.97195484,25.4755903 C2.72255754,25.2203017 2.60710731,24.8629499 2.66,24.51 L2.66,5.15 Z" id="Shape"></path>
                <path d="M24.65,8.05 C29.13,8.05 31.65,11.23 31.65,15.56 C31.6284871,16.2970994 31.0273958,16.8849313 30.29,16.89 L20.66,16.89 C20.7118878,18.0918411 21.239679,19.2236902 22.1269914,20.0359656 C23.0143037,20.8482409 24.1882623,21.2742304 25.39,21.22 C26.5946321,21.2117429 27.7727179,20.865247 28.79,20.22 C29.57,19.85 30.12,19.94 30.53,20.66 L30.9,21.27 C31.0925881,21.5520761 31.1546887,21.9033053 31.0705005,22.2343181 C30.9863123,22.5653308 30.7639524,22.8442117 30.46,23 C28.8615774,24.0199623 27.0061138,24.5644629 25.11,24.57 C22.8686885,24.6789272 20.6830227,23.8508858 19.0765151,22.284209 C17.4700076,20.7175323 16.5873655,18.5533395 16.64,16.31 C16.64,11.45 19.92,8.05 24.65,8.05 Z M27.74,14.51 C27.68,12.31 26.35,11.02 24.56,11.02 C22.5820433,11.0318877 20.9349194,12.5406705 20.75,14.51 L27.74,14.51 Z" id="Shape"></path>
                <path d="M32.9,1.66 C32.8513338,1.30793097 32.9681923,0.953141738 33.2165592,0.698907854 C33.4649262,0.444673971 33.8168909,0.319565409 34.17,0.36 L35.53,0.36 C35.8831091,0.319565409 36.2350738,0.444673971 36.4834408,0.698907854 C36.7318077,0.953141738 36.8486662,1.30793097 36.8,1.66 L36.8,20 C36.8,21.55 37.45,21.83 38.04,21.89 C38.3184109,21.8994346 38.5802677,22.0245738 38.7624952,22.2352744 C38.9447228,22.445975 39.0308026,22.7231375 39,23 L39,24.1 C39.0484066,24.4600233 38.9282915,24.8222768 38.6743723,25.0820557 C38.4204532,25.3418345 38.0610338,25.4701817 37.7,25.43 C35.59,25.43 32.9,24.87 32.9,20.35 L32.9,1.66 Z" id="Shape"></path>
                <path d="M40.22,9.2 C40.1776456,8.84391057 40.3009275,8.48806369 40.5544956,8.23449558 C40.8080637,7.98092746 41.1639106,7.85764558 41.52,7.9 L42.52,7.9 C43.35,7.9 43.79,8.36 43.79,8.98 L43.79,9.69 C43.79,10.03 43.79,10.31 43.79,10.31 L43.85,10.31 C44.9034665,8.52488174 46.8484517,7.4584007 48.92,7.53 C53.19,7.53 55.92,10.9 55.92,15.79 C55.92,20.68 52.83,24.05 48.68,24.05 C46.8418318,24.1174143 45.1087624,23.1936196 44.14,21.63 L44.08,21.63 C44.1363867,22.084377 44.1597812,22.5422421 44.15,23 L44.15,28.57 C44.2007328,28.9279474 44.0801889,29.2889156 43.8245523,29.5445523 C43.5689156,29.8001889 43.2079474,29.9207328 42.85,29.87 L41.52,29.87 C41.1629847,29.916462 40.8046328,29.7945207 40.550056,29.539944 C40.2954793,29.2853672 40.173538,28.9270153 40.22,28.57 L40.22,9.2 Z M48,20.74 C50.17,20.74 52,18.97 52,15.85 C52,12.73 50.39,10.85 48.1,10.85 C46.1,10.85 44.1,12.33 44.1,15.85 C44,18.32 45.39,20.74 48,20.74 Z" id="Shape"></path>
                <path d="M5.26,27.15 C6.33173907,27.1344435 7.38123624,27.4562892 8.26,28.07 C8.38149846,28.1496176 8.46236601,28.2781377 8.48156428,28.4221248 C8.50076255,28.5661118 8.45639346,28.7113301 8.36,28.82 L8.13,29.19 C7.95,29.49 7.7,29.51 7.39,29.32 C6.78117753,28.907568 6.0652745,28.6816763 5.33,28.67 C4.49386998,28.6466319 3.68595029,28.9734042 3.1011688,29.5714762 C2.5163873,30.1695481 2.20785069,30.9846061 2.25,31.82 C2.19145085,32.673436 2.49164147,33.5125983 3.07822721,34.1352524 C3.66481295,34.7579065 4.48459159,35.1075789 5.34,35.1 C6.15557917,35.0771803 6.94308199,34.7971793 7.59,34.3 C7.69229014,34.195779 7.83721331,34.1450257 7.98217692,34.1626564 C8.12714054,34.1802871 8.2556734,34.2642986 8.33,34.39 L8.59,34.74 C8.68839806,34.8459937 8.73608021,34.9894016 8.72074039,35.1332123 C8.70540058,35.277023 8.62854175,35.4071466 8.51,35.49 C7.5930733,36.2309998 6.44890731,36.6335767 5.27,36.63 C2.65217029,36.63 0.53,34.5078297 0.53,31.89 C0.53,29.2721703 2.65217029,27.15 5.27,27.15 L5.26,27.15 Z" id="Shape"></path>
                <path d="M9.94,26.28 C9.92340345,26.1305035 9.97638827,25.9816671 10.083719,25.8762878 C10.1910496,25.7709086 10.3408331,25.7206634 10.49,25.74 L11,25.74 C11.1484705,25.7199206 11.2978014,25.7703182 11.4037416,25.8762584 C11.5096818,25.9821986 11.5600794,26.1315295 11.54,26.28 L11.54,30.41 C11.5545001,30.5963851 11.5545001,30.7836149 11.54,30.97 C12.0034542,30.1420133 12.8811629,29.6322523 13.83,29.64 C15.28,29.64 16.12,30.4 16.12,32.14 L16.12,35.84 C16.1400794,35.9884705 16.0896818,36.1378014 15.9837416,36.2437416 C15.8778014,36.3496818 15.7284705,36.4000794 15.58,36.38 L15.03,36.38 C14.8799412,36.4035873 14.7275736,36.3547534 14.6191823,36.2483329 C14.510791,36.1419123 14.4591698,35.9904663 14.48,35.84 L14.48,32.48 C14.48,31.68 14.28,31.14 13.48,31.14 C12.9344206,31.1650391 12.422813,31.4121044 12.0639712,31.8238281 C11.7051295,32.2355519 11.5302719,32.7761149 11.58,33.32 L11.58,35.84 C11.6000794,35.9884705 11.5496818,36.1378014 11.4437416,36.2437416 C11.3378014,36.3496818 11.1884705,36.4000794 11.04,36.38 L10.49,36.38 C10.3408331,36.3993366 10.1910496,36.3490914 10.083719,36.2437122 C9.97638827,36.1383329 9.92340345,35.9894965 9.94,35.84 L9.94,26.28 Z" id="Shape"></path>
                <path d="M21.12,32.48 L21.39,32.48 L21.39,32.33 C21.4177439,32.0019504 21.294342,31.6791604 21.0548323,31.4532813 C20.8153226,31.2274023 20.4858635,31.1231038 20.16,31.17 C19.680315,31.1819962 19.2105054,31.3088791 18.79,31.54 C18.47,31.68 18.22,31.63 18.07,31.32 L17.94,31.08 C17.856018,30.9590116 17.8309109,30.8066649 17.8716276,30.6651258 C17.9123444,30.5235866 18.014566,30.4078688 18.15,30.35 C18.8140461,30.0029482 19.550774,29.8179096 20.3,29.81 C21.0225458,29.7338214 21.7416339,29.9822656 22.2630493,30.4882317 C22.7844646,30.9941977 23.0544184,31.7054904 23,32.43 L23,36 C23.0208302,36.1504663 22.969209,36.3019123 22.8608177,36.4083329 C22.7524264,36.5147534 22.6000588,36.5635873 22.45,36.54 L22.02,36.54 C21.8721738,36.5609555 21.7231846,36.5104281 21.6186019,36.4038722 C21.5140192,36.2973163 21.4662853,36.1474087 21.49,36 L21.49,35.74 C21.4817137,35.6468506 21.4817137,35.5531494 21.49,35.46 C21.073052,36.215368 20.2827289,36.6887983 19.42,36.7 C18.8591361,36.7506881 18.3028922,36.5625714 17.8879221,36.1818649 C17.472952,35.8011584 17.2377142,35.2631451 17.24,34.7 C17.27,32.81 19.64,32.48 21.12,32.48 Z M19.89,35.48 C20.7728479,35.3957574 21.4358733,34.6361322 21.4,33.75 L21.4,33.51 L21.13,33.51 C20.3,33.51 18.9,33.64 18.9,34.62 C18.9148717,34.8638589 19.0293353,35.0908818 19.2165551,35.2478439 C19.4037749,35.4048059 19.6472867,35.4779038 19.89,35.45 L19.89,35.48 Z" id="Shape"></path>
                <path d="M24.7,27.56 C24.6811572,27.4153972 24.7290718,27.2700698 24.8302223,27.1650289 C24.9313728,27.0599879 25.0747893,27.0066254 25.22,27.02 L25.79,27.02 C25.9368537,27.0033232 26.0832019,27.0552293 26.1867294,27.1607101 C26.2902568,27.2661908 26.3394186,27.4134837 26.32,27.56 L26.32,34.74 C26.32,35.38 26.59,35.5 26.84,35.52 C26.9560337,35.527585 27.0640489,35.5818403 27.139413,35.6703932 C27.2147771,35.7589461 27.2510645,35.8742462 27.24,35.99 L27.24,36.43 C27.2593366,36.5791669 27.2090914,36.7289504 27.1037122,36.836281 C26.9983329,36.9436117 26.8494965,36.9965965 26.7,36.98 C25.82,36.98 24.7,36.75 24.7,34.87 L24.7,27.56 Z" id="Shape"></path>
                <path d="M28.15,26.83 C28.1305814,26.6834837 28.1797432,26.5361908 28.2832706,26.4307101 C28.3867981,26.3252293 28.5331463,26.2733232 28.68,26.29 L29.25,26.29 C29.3968537,26.2733232 29.5432019,26.3252293 29.6467294,26.4307101 C29.7502568,26.5361908 29.7994186,26.6834837 29.78,26.83 L29.78,34.75 C29.78,35.39 30.05,35.51 30.3,35.54 C30.416236,35.5419657 30.5261732,35.5931833 30.6024557,35.6809081 C30.6787382,35.768633 30.7141938,35.8846171 30.7,36 L30.7,36.44 C30.7234661,36.5927089 30.6735346,36.7475408 30.5652743,36.8577694 C30.457014,36.9679981 30.3031068,37.020711 30.15,37 C29.28,37 28.15,36.76 28.15,34.88 L28.15,26.83 Z" id="Shape"></path>
                <path d="M34.36,30 C35.1819985,29.9721801 35.9756889,30.3020801 36.5357802,30.90437 C37.0958715,31.50666 37.3673512,32.3221827 37.28,33.14 C37.2692227,33.4469653 37.0171544,33.6901891 36.71,33.69 L32.71,33.69 C32.7305889,34.1968901 32.9540907,34.6742228 33.3302332,35.0146318 C33.7063758,35.3550408 34.2035764,35.5299438 34.71,35.5 C35.217695,35.4944918 35.7134655,35.345414 36.14,35.07 C36.46,34.92 36.69,34.96 36.86,35.25 L37.01,35.51 C37.0956893,35.6254008 37.1251533,35.7731288 37.0902923,35.9125731 C37.0554312,36.0520173 36.9599145,36.1685002 36.83,36.23 C36.1669269,36.6627433 35.3917879,36.8921566 34.6,36.89 C33.6512209,36.9553085 32.7190154,36.6166926 32.0333393,35.9576817 C31.3476632,35.2986708 30.9723567,34.3806224 31,33.43 C30.9488288,32.5178573 31.2839297,31.6262982 31.9232324,30.9736767 C32.5625351,30.3210552 33.4469962,29.9676447 34.36,30 Z M35.66,32.7 C35.693625,32.3260539 35.5688248,31.9551537 35.3159828,31.6775978 C35.0631408,31.400042 34.7054526,31.2412932 34.33,31.24 C33.502087,31.2419992 32.8124402,31.8752599 32.74,32.7 L35.66,32.7 Z" id="Shape"></path>
                <path d="M38.39,30.81 C38.3712246,30.662743 38.4202191,30.5149136 38.5232269,30.4080187 C38.6262347,30.3011238 38.7721488,30.2466896 38.92,30.26 L39.42,30.26 C39.5678512,30.2466896 39.7137653,30.3011238 39.8167731,30.4080187 C39.9197809,30.5149136 39.9687754,30.662743 39.95,30.81 L39.95,31.21 C39.9555012,31.3065884 39.9555012,31.4034116 39.95,31.5 C40.4040717,30.6311457 41.3097937,30.0931314 42.29,30.11 C43.75,30.11 44.59,30.87 44.59,32.61 L44.59,36.31 C44.6100794,36.4584705 44.5596818,36.6078014 44.4537416,36.7137416 C44.3478014,36.8196818 44.1984705,36.8700794 44.05,36.85 L43.49,36.85 C43.3415295,36.8700794 43.1921986,36.8196818 43.0862584,36.7137416 C42.9803182,36.6078014 42.9299206,36.4584705 42.95,36.31 L42.95,33 C42.95,32.2 42.74,31.66 41.95,31.66 C41.4105074,31.6728085 40.899085,31.9030863 40.5318832,32.2985344 C40.1646814,32.6939825 39.9728657,33.2210379 40,33.76 L40,36.31 C40.0237147,36.4574087 39.9759808,36.6073163 39.8713981,36.7138722 C39.7668154,36.8204281 39.6178262,36.8709555 39.47,36.85 L38.9,36.85 C38.7521738,36.8709555 38.6031846,36.8204281 38.4986019,36.7138722 C38.3940192,36.6073163 38.3462853,36.4574087 38.37,36.31 L38.39,30.81 Z" id="Shape"></path>
                <path d="M47.05,38.23 C47.4749,38.3907552 47.9257117,38.4721046 48.38,38.47 C49.38,38.47 50.24,38.05 50.24,36.87 L50.24,36.38 C50.24,36.23 50.24,36.05 50.24,36.05 C49.8830324,36.7075133 49.1766364,37.0977873 48.43,37.05 C46.51,37.05 45.43,35.52 45.43,33.7 C45.43,31.88 46.43,30.44 48.43,30.44 C49.2381429,30.3347136 50.0293433,30.7303139 50.43,31.44 C50.4260439,31.38674 50.4260439,31.33326 50.43,31.28 L50.43,31 C50.43,30.76 50.61,30.56 50.96,30.56 L51.4,30.56 C51.5468537,30.5433232 51.6932019,30.5952293 51.7967294,30.7007101 C51.9002568,30.8061908 51.9494186,30.9534837 51.93,31.1 L51.93,36.75 C51.93,39.01 50.15,39.86 48.52,39.86 C47.8638727,39.8629584 47.2128793,39.7442878 46.6,39.51 C46.4546907,39.4743517 46.3350357,39.3716491 46.2777708,39.2334235 C46.2205059,39.0951979 46.2324737,38.9379659 46.31,38.81 L46.42,38.51 C46.4623031,38.3861829 46.5543058,38.2856048 46.6738728,38.2324639 C46.7934398,38.179323 46.9297471,38.1784301 47.05,38.23 Z M50.28,33.72 C50.28,32.21 49.53,31.81 48.68,31.81 C47.68,31.81 47.1,32.53 47.1,33.62 C47.1,34.71 47.69,35.62 48.75,35.62 C49.53,35.65 50.28,35.19 50.28,33.72 Z" id="Shape"></path>
                <path d="M56.11,30 C56.9229856,29.9817009 57.704815,30.3127805 58.2574182,30.9093626 C58.8100215,31.5059447 59.0803797,32.3107907 59,33.12 C58.9892227,33.4269653 58.7371544,33.6701891 58.43,33.67 L54.43,33.67 C54.4505889,34.1768901 54.6740907,34.6542228 55.0502332,34.9946318 C55.4263758,35.3350408 55.9235764,35.5099438 56.43,35.48 C56.934621,35.474798 57.4272653,35.325617 57.85,35.05 C58.18,34.9 58.41,34.94 58.58,35.23 L58.73,35.49 C58.8156893,35.6054008 58.8451533,35.7531288 58.8102923,35.8925731 C58.7754312,36.0320173 58.6799145,36.1485002 58.55,36.21 C57.8869269,36.6427433 57.1117879,36.8721566 56.32,36.87 C55.3848569,36.9174619 54.4721248,36.5737181 53.800611,35.9211736 C53.1290971,35.268629 52.759347,34.366119 52.78,33.43 C52.7293896,32.5232282 53.0604987,31.636644 53.6931122,30.9850331 C54.3257256,30.3334223 55.202128,29.9762334 56.11,30 Z M57.41,32.7 C57.443625,32.3260539 57.3188248,31.9551537 57.0659828,31.6775978 C56.8131408,31.400042 56.4554526,31.2412932 56.08,31.24 C55.252087,31.2419992 54.5624402,31.8752599 54.49,32.7 L57.41,32.7 Z" id="Shape"></path>
            </g>
        </g>
    </g>
</svg>