<?xml version="1.0" encoding="UTF-8"?>
<svg width="188px" height="98px" viewBox="0 0 188 98" version="1.1" xmlns="http://www.w3.org/2000/svg" xmlns:xlink="http://www.w3.org/1999/xlink">
    <!-- Generator: Sketch 49 (51002) - http://www.bohemiancoding.com/sketch -->
    <title>logo/CC-climatecents/kelped</title>
    <desc>Created with Sketch.</desc>
    <defs>
        <linearGradient x1="57.5083769%" y1="96.1348356%" x2="82.0463576%" y2="-4.3208639%" id="linearGradient-1">
            <stop stop-color="#FCEE21" offset="0%"></stop>
            <stop stop-color="#8CC63F" offset="100%"></stop>
        </linearGradient>
        <linearGradient x1="55209%" y1="4971.78362%" x2="52709%" y2="9126.7379%" id="linearGradient-2">
            <stop stop-color="#FCEE21" offset="0%"></stop>
            <stop stop-color="#8CC63F" offset="100%"></stop>
        </linearGradient>
        <linearGradient x1="64.4503864%" y1="10.1054047%" x2="38.323499%" y2="117.367327%" id="linearGradient-3">
            <stop stop-color="#599C3F" offset="0%"></stop>
            <stop stop-color="#FCEE21" offset="100%"></stop>
        </linearGradient>
        <linearGradient x1="105.178298%" y1="12.8932583%" x2="24.9221849%" y2="95.1445895%" id="linearGradient-4">
            <stop stop-color="#C5C321" offset="0%"></stop>
            <stop stop-color="#8CC63F" offset="100%"></stop>
        </linearGradient>
    </defs>
    <g id="Symbols" stroke="none" stroke-width="1" fill="none" fill-rule="evenodd">
        <g id="Asset/Logo/CC-climatecents/kelped-blue" transform="translate(-1.000000, 0.000000)" fill-rule="nonzero">
            <g id="logo/CC-climatecents/kelped">
                <path d="M144.3,97.08 C126.514438,97.0873264 110.431848,86.5060649 103.399144,70.1699906 C96.3664391,53.8339163 99.7338355,34.8794064 111.963025,21.9653373 C124.192215,9.05126829 142.935305,4.65702359 159.63,10.79 L152.14,31.23 C140.706902,27.1511661 128.085933,32.7714639 123.468465,43.9978437 C118.850998,55.2242236 123.865265,68.0979848 134.859568,73.2436557 C145.85387,78.3893267 158.951343,73.9924157 164.613593,63.2550262 C170.275843,52.5176368 166.506222,39.2260394 156.05,33.06 L167.13,14.35 C184.344665,24.6055298 192.581712,45.1017071 187.251312,64.4176955 C181.920912,83.733684 164.337963,97.1046286 144.3,97.08" id="Shape" fill-opacity="0.5" fill="#1B6067" opacity="0.8"></path>
                <g id="Group" opacity="0.9" transform="translate(108.000000, 17.000000)" fill="url(#linearGradient-1)">
                    <g opacity="0.7" id="Shape">
                        <path d="M0.81,63.76 C19.64,56.7 42.94,68.91 56.3,49.29 C69.66,29.67 52.7,18.43 54.45,0.46 C67.6,19.22 86.06,44.52 67.51,64.64 C42.06,92.25 26.84,79.45 0.81,63.76 Z"></path>
                    </g>
                </g>
                <g id="Group" opacity="0.7" transform="translate(101.000000, 0.000000)" fill="url(#linearGradient-2)">
                    <path d="M56.27,0 C29.27,1.61 11.9,15.39 3.88,36.93 C-4.14,58.47 3.94,66.14 4.88,85.08 C9.21,71.08 13.13,53.27 21.96,43.28 C35.4,28.05 46.71,16.17 56.27,0 Z" id="Shape"></path>
                </g>
                <g id="Group" opacity="0.7" transform="translate(119.000000, 13.000000)" fill="url(#linearGradient-3)">
                    <path d="M46,0 C64.91,16.71 75.11,29 63.86,55.24 C52.61,81.48 25,78.68 0.31,81.78 C28.58,80.62 59.31,63.51 46.2,38.34 C34.61,16.1 46.35,18.31 46,0 Z" id="Shape"></path>
                </g>
                <g id="Group" opacity="0.7" transform="translate(103.000000, 9.000000)" fill="url(#linearGradient-4)">
                    <path d="M48.52,0.91 C20.81,6.54 -6.75,24.57 2.69,55.34 C12.13,86.11 27.38,76.74 49.23,88.83 C39.76,77.47 18.58,69.42 20.46,52.65 C23.32,27.08 42,21.56 48.52,0.91 Z" id="Shape"></path>
                </g>
                <g id="Group" opacity="0.8" transform="translate(0.000000, 39.000000)" fill="#1B6067" fill-opacity="0.5">
                    <path d="M8.41,15.72 C6.47649581,15.7520893 4.60946214,15.014647 3.21975986,13.6699553 C1.83005757,12.3252636 1.03156535,10.4835128 1,8.55 L1,8.24 C0.96521486,6.29322278 1.70536686,4.412393 3.05756918,3.01142888 C4.40977149,1.61046477 6.26321197,0.804174462 8.21,0.77 L8.55,0.77 C10.6817226,0.662484719 12.7571746,1.4744598 14.25,3 L12.25,5.33 C11.2872928,4.32119848 9.96400711,3.73506922 8.57,3.7 C7.43391715,3.71825721 6.35244971,4.19066804 5.56706212,5.01175507 C4.78167453,5.8328421 4.35777153,6.93422762 4.39,8.07 L4.39,8.23 C4.29310895,9.39131768 4.6807638,10.5410064 5.46107576,11.4065466 C6.24138773,12.2720868 7.34488601,12.7764199 8.51,12.8 C9.95577082,12.776492 11.328905,12.1621952 12.31,11.1 L14.37,13.16 C12.8849251,14.8874668 10.6852986,15.8322729 8.41,15.72 Z" id="Shape-2"></path>
                    <polygon id="Shape-3" points="16.11 15.48 16.11 1.05 19.28 1.05 19.28 12.58 26.49 12.58 26.49 15.48"></polygon>
                    <polygon id="Shape-4" points="28.08 15.48 28.08 1.05 31.26 1.05 31.26 15.48"></polygon>
                    <polygon id="Shape-5" points="45.55 15.48 45.55 6.04 41.49 12.22 41.4 12.22 37.39 6.1 37.39 15.48 34.26 15.48 34.26 1.05 37.7 1.05 41.51 7.13 45.31 1.02 48.74 1.02 48.74 15.44"></polygon>
                    <path d="M62.19,15.47 L60.86,12.23 L54.75,12.23 L53.43,15.47 L50.19,15.47 L56.37,0.92 L59.3,0.92 L65.48,15.47 L62.19,15.47 Z M57.81,4.74 L55.89,9.43 L59.73,9.43 L57.81,4.74 Z" id="Shape-6"></path>
                    <polygon id="Shape-7" points="71.8 3.95 71.8 15.48 68.62 15.48 68.62 3.95 64.23 3.95 64.23 1.02 76.2 1.02 76.2 3.95"></polygon>
                    <polygon id="Shape-8" points="77.78 15.48 77.78 1.05 88.67 1.05 88.67 3.87 80.93 3.87 80.93 6.8 87.75 6.8 87.75 9.63 80.93 9.63 80.93 12.67 88.78 12.67 88.78 15.48"></polygon>
                    <path d="M29.15,33.49 C25.1242206,33.5401062 21.81578,30.3255538 21.75,26.3 L21.75,26 C21.7179411,24.0481102 22.4647523,22.1638569 23.825288,20.7639126 C25.1858236,19.3639682 27.0479905,18.5636732 29,18.54 L29.34,18.54 C31.4595529,18.4466793 33.5183529,19.2614694 35,20.78 L32.94,23.1 C31.9712892,22.0951969 30.6453267,21.513067 29.25,21.48 C28.0868004,21.4997906 26.982035,21.9933339 26.1911443,22.8465143 C25.4002536,23.6996947 24.9917188,24.8386376 25.06,26 C24.9918643,27.1642258 25.3995336,28.3061943 26.1895374,29.1640743 C26.9795412,30.0219543 28.0841145,30.5221586 29.25,30.55 C30.6949973,30.5230178 32.0668304,29.909303 33.05,28.85 L35.11,30.91 C33.6251747,32.6399296 31.4275225,33.5912623 29.15,33.49 Z" id="Shape-9"></path>
                    <polygon id="Shape-10" points="36.82 33.24 36.82 18.82 47.69 18.82 47.69 21.65 39.98 21.65 39.98 24.58 46.79 24.58 46.79 27.41 39.98 27.41 39.98 30.44 47.82 30.44 47.82 33.27"></polygon>
                    <polygon id="Shape-11" points="60.38 33.24 53.38 24.06 53.38 33.24 50.24 33.24 50.24 18.82 53.19 18.82 59.96 27.75 59.96 18.82 63.09 18.82 63.09 33.24"></polygon>
                    <polygon id="Shape-12" points="72.23 21.72 72.23 33.24 69.06 33.24 69.06 21.72 64.65 21.72 64.65 18.79 76.63 18.79 76.63 21.72"></polygon>
                    <path d="M83.5,33.44 C81.2439307,33.4500166 79.0626588,32.6315948 77.37,31.14 L79.28,28.89 C80.451389,29.9678924 81.9691999,30.592039 83.56,30.65 C84.86,30.65 85.62,30.13 85.62,29.28 C85.62,28.47 85.13,28.06 82.72,27.44 C79.81,26.69 77.91,25.89 77.91,23.02 C77.91,20.4 80.02,18.67 82.97,18.67 C84.9211604,18.6296939 86.8235734,19.281545 88.34,20.51 L86.69,22.9 C85.6101929,22.0539303 84.2991381,21.5553111 82.93,21.47 C81.71,21.47 81.07,22.03 81.07,22.73 C81.07,23.73 81.69,24 84.19,24.63 C87.12,25.4 88.77,26.45 88.77,28.97 C88.8,31.84 86.62,33.44 83.5,33.44 Z" id="Shape-13"></path>
                </g>
            </g>
        </g>
    </g>
</svg>