<?xml version="1.0" encoding="UTF-8"?>
<svg width="26px" height="26px" viewBox="0 0 26 26" version="1.1" xmlns="http://www.w3.org/2000/svg" xmlns:xlink="http://www.w3.org/1999/xlink">
    <!-- Generator: Sketch 49.2 (51160) - http://www.bohemiancoding.com/sketch -->
    <title>Icon/Social/Instagram/Blue</title>
    <desc>Created with Sketch.</desc>
    <defs></defs>
    <g id="Desktop" stroke="none" stroke-width="1" fill="none" fill-rule="evenodd">
        <g id="Home_Scene-01---Landing" transform="translate(-706.000000, -667.000000)">
            <g id="Icon/Social/Instagram/Blue" transform="translate(707.000000, 668.000000)">
                <circle id="Oval-1-Copy-20" stroke="#05292E" cx="12" cy="12" r="12"></circle>
                <g id="Group-6" transform="translate(6.171429, 5.828571)" fill="#05292E">
                    <path d="M10.8749333,2.25232582 C10.8749333,2.66702072 10.5392,3.00310109 10.1249333,3.00310109 L9.37493335,3.00310109 C8.96080001,3.00310109 8.62493335,2.66702072 8.62493335,2.25232582 L8.62493335,1.87687145 C8.62493335,1.46231003 8.96080001,1.12622965 9.37493335,1.12622965 L10.1249333,1.12622965 C10.5392,1.12622965 10.8749333,1.46231003 10.8749333,1.87687145 L10.8749333,2.25232582 Z M9.74986666,0 L2.99986667,0 L2.99986667,3.75387638 L3.93013334,3.75387638 C4.47520001,3.2516244 5.20066666,2.94237172 5.99986666,2.94237172 C6.7992,2.94237172 7.52466665,3.2516244 8.06986666,3.75387638 L11.25,3.75387638 L11.25,9.76007856 C11.25,10.5894683 10.5784,11.2616291 9.74986666,11.2616291 L2.24986667,11.2616291 C1.42146667,11.2616291 0.75,10.5894683 0.75,9.76007856 L0.75,4.12933073 L0.75,3.75387638 L0.75,0.576862354 C0.290666667,0.989288235 0,1.58603779 0,2.25232582 L0,9.76007856 C0,11.0040298 1.00733333,12.0124044 2.24986667,12.0124044 L9.74986666,12.0124044 C10.9925333,12.0124044 12,11.0040298 12,9.76007856 L12,3.75387638 L12,2.62778019 L12,2.25232582 C12,1.00837461 10.9925333,0 9.74986666,0 L9.74986666,0 Z" id="Fill-33"></path>
                    <path d="M2.12142857,3.75387638 L2.12142857,0 C1.85809524,0 1.6063619,0.047649204 1.37142857,0.130801737 L1.37142857,3.75387638 L2.12142857,3.75387638 Z" id="Fill-35"></path>
                    <path d="M4.53222857,6.40078015 C4.53222857,5.55871059 5.21422858,4.87600563 6.05542858,4.87600563 C6.89662858,4.87600563 7.57862856,5.55871059 7.57862856,6.40078015 C7.57862856,7.2428497 6.89662858,7.9255547 6.05542858,7.9255547 C5.21422858,7.9255547 4.53222857,7.2428497 4.53222857,6.40078015 M8.33942856,6.40078015 C8.33942856,5.13800952 7.31689522,4.11428571 6.05542858,4.11428571 C4.79396191,4.11428571 3.77142857,5.13800952 3.77142857,6.40078015 C3.77142857,7.66355081 4.79396191,8.68714111 6.05542858,8.68714111 C7.31689522,8.68714111 8.33942856,7.66355081 8.33942856,6.40078015" id="Fill-37"></path>
                </g>
            </g>
        </g>
    </g>
</svg>