<?xml version="1.0" encoding="UTF-8"?>
<svg width="60px" height="89px" viewBox="0 0 60 89" version="1.1" xmlns="http://www.w3.org/2000/svg" xmlns:xlink="http://www.w3.org/1999/xlink">
    <!-- Generator: Sketch 49 (51002) - http://www.bohemiancoding.com/sketch -->
    <title>Page 1</title>
    <desc>Created with Sketch.</desc>
    <defs>
        <polygon id="path-1" points="0.595039826 0.421157133 25.2540423 0.421157133 25.2540423 5.69831534 0.595039826 5.69831534"></polygon>
        <polygon id="path-3" points="0.424046667 0.00765466917 5.89567267 0.00765466917 5.89567267 4.59079418 0.424046667 4.59079418"></polygon>
        <polygon id="path-5" points="0.254333333 0.112436444 2.49777613 0.112436444 2.49777613 2.43375519 0.254333333 2.43375519"></polygon>
        <polygon id="path-7" points="0.600282459 0.499490752 6.71358782 0.499490752 6.71358782 20.8799755 0.600282459 20.8799755"></polygon>
        <polygon id="path-9" points="0.495189319 0.403979699 6.90522959 0.403979699 6.90522959 26.2793378 0.495189319 26.2793378"></polygon>
        <polygon id="path-11" points="0 0.413071102 59.8342965 0.413071102 59.8342965 34.6526953 0 34.6526953"></polygon>
        <polygon id="path-13" points="0.568027884 0.557471241 7.08591212 0.557471241 7.08591212 4.04917724 0.568027884 4.04917724"></polygon>
        <polygon id="path-15" points="0.0263746924 0.159750985 6.5092228 0.159750985 6.5092228 2.87930604 0.0263746924 2.87930604"></polygon>
        <polygon id="path-17" points="0.252739507 0.433995046 8.38932 0.433995046 8.38932 3.57237301 0.252739507 3.57237301"></polygon>
        <polygon id="path-19" points="0.013377277 0.55387109 10.0548168 0.55387109 10.0548168 3.15560541 0.013377277 3.15560541"></polygon>
        <polygon id="path-21" points="0.410906667 0.0787857444 9.67902667 0.0787857444 9.67902667 2.67417565 0.410906667 2.67417565"></polygon>
        <polygon id="path-23" points="0.0875796416 0.0416292481 8.67834878 0.0416292481 8.67834878 7.29288752 0.0875796416 7.29288752"></polygon>
        <polygon id="path-25" points="0.479187985 0.0269074483 3.74017733 0.0269074483 3.74017733 3.4113004 0.479187985 3.4113004"></polygon>
        <polygon id="path-27" points="0.084938 0.0699732502 42.5031606 0.0699732502 42.5031606 4.85901188 0.084938 4.85901188"></polygon>
    </defs>
    <g id="Desktop" stroke="none" stroke-width="1" fill="none" fill-rule="evenodd">
        <g id="Home_Scene-04---Kelp-Facts" transform="translate(-360.000000, -171.000000)">
            <g id="Page-1" transform="translate(360.000000, 171.000000)">
                <g id="Group-3" transform="translate(11.333333, 27.724169)">
                    <mask id="mask-2" fill="white">
                        <use xlink:href="#path-1"></use>
                    </mask>
                    <g id="Clip-2"></g>
                    <path d="M1.70664667,5.69197158 C6.77973333,5.20526872 11.8535933,4.71856586 16.9274533,4.23186301 C19.2298133,4.01133707 23.9436933,4.70695571 25.13126,2.19064466 C25.7660733,0.846604135 23.7640867,-0.332625789 23.1261733,1.01915707 C22.5347133,2.27189564 13.9608667,2.19528872 12.3606733,2.34927211 C8.80958667,2.68973391 5.25772667,3.03018902 1.70664667,3.37065083 C0.231866667,3.51225451 0.21716,5.83512105 1.70664667,5.69197158" id="Fill-1" fill-opacity="0.8" fill="#FFFFFF" mask="url(#mask-2)"></path>
                </g>
                <g id="Group-6" transform="translate(10.666667, 32.408380)">
                    <mask id="mask-4" fill="white">
                        <use xlink:href="#path-3"></use>
                    </mask>
                    <g id="Clip-5"></g>
                    <path d="M0.99848,2.17902113 C2.04824,2.92725684 3.09878,3.6762688 4.14932,4.42373496 C4.66026667,4.78817992 5.44139333,4.51426737 5.7379,4.00744248 C6.07930667,3.42479361 5.8339,2.78488361 5.3214,2.42043865 C4.27163333,1.67142669 3.2211,0.923184286 2.17056,0.174172331 C1.65961333,-0.190272632 0.87848,0.0844161654 0.58198,0.590464812 C0.240573333,1.17388992 0.48598,1.81379992 0.99848,2.17902113" id="Fill-4" fill-opacity="0.8" fill="#FFFFFF" mask="url(#mask-4)"></path>
                </g>
                <path d="M35.04346,29.5616645 C34.49148,30.574538 33.94028,31.5866286 33.3883,32.5987259 C32.6729733,33.911041 34.67728,35.0840811 35.39338,33.7702202 C35.94536,32.7581229 36.4965667,31.7452561 37.04854,30.733935 C37.7638667,29.4208371 35.75956,28.2485732 35.04346,29.5616645" id="Fill-7" fill-opacity="0.8" fill="#FFFFFF"></path>
                <g id="Group-11" transform="translate(14.000000, 35.754244)">
                    <mask id="mask-6" fill="white">
                        <use xlink:href="#path-5"></use>
                    </mask>
                    <g id="Clip-10"></g>
                    <path d="M1.37601333,2.43375519 C2.87014667,2.43375519 2.87324667,0.112434436 1.37601333,0.112434436 C-0.11812,0.112434436 -0.121213333,2.43375519 1.37601333,2.43375519" id="Fill-9" fill-opacity="0.8" fill="#FFFFFF" mask="url(#mask-6)"></path>
                </g>
                <g id="Group-14" transform="translate(13.333333, 35.085071)">
                    <mask id="mask-8" fill="white">
                        <use xlink:href="#path-7"></use>
                    </mask>
                    <g id="Clip-13"></g>
                    <path d="M0.644853333,1.93924977 C2.23576,7.90890805 3.50538667,13.9358274 4.45760667,20.0401166 C4.68753333,21.5118353 6.92563333,20.8866271 6.69725333,19.4226507 C5.74503333,13.3191244 4.47540667,7.29143541 2.88450667,1.32177714 C2.49974667,-0.11976188 0.258546667,0.491520902 0.644853333,1.93924977" id="Fill-12" fill-opacity="0.8" fill="#FFFFFF" mask="url(#mask-8)"></path>
                </g>
                <g id="Group-17" transform="translate(32.000000, 32.408380)">
                    <mask id="mask-10" fill="white">
                        <use xlink:href="#path-9"></use>
                    </mask>
                    <g id="Clip-16"></g>
                    <path d="M0.500953333,1.5155897 C1.24105333,9.60461233 2.60745333,17.584533 4.62414667,25.4537992 C4.99496667,26.9007586 7.23539333,26.28793 6.8638,24.8371029 C4.89665333,17.1635965 3.54496,9.40652376 2.82344,1.5155897 C2.68796667,0.0407727068 0.3647,0.0260709774 0.500953333,1.5155897" id="Fill-15" fill-opacity="0.8" fill="#FFFFFF" mask="url(#mask-10)"></path>
                </g>
                <g id="Group-20" transform="translate(0.000000, 53.821914)">
                    <mask id="mask-12" fill="white">
                        <use xlink:href="#path-11"></use>
                    </mask>
                    <g id="Clip-19"></g>
                    <path d="M17.31258,0.931167519 C13.3697733,6.61530308 9.42696,12.2986691 5.48415267,17.9835809 C3.328884,21.0918223 -1.80923333,25.7785689 0.356099467,29.9484297 C2.45795067,33.9937153 8.02108,33.4690971 11.79822,33.5573068 C18.88878,33.7236685 25.97856,33.8892554 33.06834,34.0556171 C39.33286,34.2010862 46.1633,35.162886 52.3782733,34.2923914 C55.8612333,33.8041406 59.7150133,31.7103112 59.8319133,27.7215126 C59.9658467,23.1539322 54.4212933,19.1063259 51.61108,16.2108615 C46.97462,11.4328195 42.21352,6.78166617 37.3502333,2.23420113 C36.25944,1.2143682 34.6135667,2.85245 35.7082333,3.87615075 C42.2700333,10.0113959 48.9680933,16.2480073 54.8881133,23.0161963 C56.0029067,24.2898265 56.72752,25.1819879 57.0712533,26.9020835 C57.5187133,29.1421587 56.16006,30.4637625 54.1905933,31.4394902 C51.8967467,32.5753892 48.4850133,32.0941026 45.9821467,32.0352957 C41.1707267,31.9230988 36.36008,31.8101277 31.54866,31.6987044 C26.99116,31.5911502 22.4336667,31.484369 17.8754,31.3783626 C15.3438867,31.3187821 12.8116,31.2646179 10.2793133,31.2003947 C9.33870667,31.1771811 8.38339333,31.1980734 7.44510667,31.1222434 C5.40286533,31.4712151 4.23155733,30.5813763 3.931182,28.4527265 C2.539238,27.4700374 2.22337933,26.5430522 2.98205867,25.6725586 C3.49610267,23.8541949 5.98890667,21.3193143 7.06731333,19.7640292 C8.33462,17.9371537 9.60192,16.1095019 10.8692267,14.2826196 C13.6856333,10.2226337 16.5020333,6.16264774 19.3176667,2.1026618 C20.1715667,0.871591053 18.1595133,-0.289845564 17.31258,0.931167519" id="Fill-18" fill-opacity="0.8" fill="#FFFFFF" mask="url(#mask-12)"></path>
                </g>
                <g id="Group-23" transform="translate(28.000000, 41.107628)">
                    <mask id="mask-14" fill="white">
                        <use xlink:href="#path-13"></use>
                    </mask>
                    <g id="Clip-22"></g>
                    <path d="M2.00691333,4.00277165 C3.42595333,3.61588932 4.84576667,3.2290003 6.26480667,2.84211797 C7.70475333,2.44980865 7.09316,0.209738872 5.64702667,0.603587293 C4.22798667,0.990476316 2.80894667,1.37736534 1.38913333,1.76424767 C-0.0508133333,2.1565503 0.56078,4.39739632 2.00691333,4.00277165" id="Fill-21" fill-opacity="0.8" fill="#FFFFFF" mask="url(#mask-14)"></path>
                </g>
                <g id="Group-26" transform="translate(29.333333, 48.468530)">
                    <mask id="mask-16" fill="white">
                        <use xlink:href="#path-15"></use>
                    </mask>
                    <g id="Clip-25"></g>
                    <path d="M1.13885333,2.87360925 C2.55789333,2.74438526 3.97770667,2.61594421 5.39674667,2.48672023 C6.87307333,2.35208263 6.88700667,0.0299923308 5.39674667,0.165399474 C3.97770667,0.294623459 2.55789333,0.423071203 1.13885333,0.552288496 C-0.337473333,0.68692609 -0.351413333,3.00901639 1.13885333,2.87360925" id="Fill-24" fill-opacity="0.8" fill="#FFFFFF" mask="url(#mask-16)"></path>
                </g>
                <g id="Group-29" transform="translate(31.333333, 57.167778)">
                    <mask id="mask-18" fill="white">
                        <use xlink:href="#path-17"></use>
                    </mask>
                    <g id="Clip-28"></g>
                    <path d="M1.69274,3.52765218 C3.52672667,3.03475278 5.36923333,2.77864023 7.26825333,2.75542662 C8.76084,2.73685038 8.76548667,0.415536316 7.26825333,0.434105865 C5.17027333,0.460411053 3.10094,0.745164211 1.07495333,1.28835195 C-0.366533333,1.67523429 0.245053333,3.9160803 1.69274,3.52765218" id="Fill-27" fill-opacity="0.8" fill="#FFFFFF" mask="url(#mask-18)"></path>
                </g>
                <g id="Group-32" transform="translate(36.666667, 65.197853)">
                    <mask id="mask-20" fill="white">
                        <use xlink:href="#path-19"></use>
                    </mask>
                    <g id="Clip-31"></g>
                    <path d="M1.47081333,3.13858165 C3.83510667,2.75943496 6.22881333,2.74627902 8.59620667,3.10531038 C10.0586,3.32738211 10.6887667,1.09118015 9.21398667,0.866786391 C6.39836,0.43966 3.66556,0.44817188 0.853806667,0.899281429 C-0.61788,1.13605489 0.00609333333,3.37380932 1.47081333,3.13858165" id="Fill-30" fill-opacity="0.8" fill="#FFFFFF" mask="url(#mask-20)"></path>
                </g>
                <g id="Group-35" transform="translate(44.000000, 71.889583)">
                    <mask id="mask-22" fill="white">
                        <use xlink:href="#path-21"></use>
                    </mask>
                    <g id="Clip-34"></g>
                    <path d="M1.86927333,2.57505774 C3.98041333,2.27251128 6.11865333,2.30501301 8.22127333,2.65553248 C9.68366667,2.90004158 10.3122867,0.663063383 8.83906,0.417001805 C6.28819333,-0.00857210526 3.81087333,-0.0294636842 1.25226667,0.335757519 C-0.22174,0.546995338 0.40456,2.78474977 1.86927333,2.57505774" id="Fill-33" fill-opacity="0.8" fill="#FFFFFF" mask="url(#mask-22)"></path>
                </g>
                <g id="Group-38" transform="translate(17.333333, 17.686575)">
                    <mask id="mask-24" fill="white">
                        <use xlink:href="#path-23"></use>
                    </mask>
                    <g id="Clip-37"></g>
                    <path d="M5.36780667,1.4812812 C3.79935333,-0.746395489 0.132146667,0.46922406 0.08802,3.18673534 C0.06402,4.63752902 1.02398,5.93978639 2.24716,6.64082534 C3.95806,7.62119714 6.01346,7.29156925 7.85286667,6.96426338 C8.64561333,6.82343594 8.84457333,5.8709218 8.54729333,5.25963902 C7.65700667,3.43118421 6.47098667,1.8008782 5.01788667,0.377145865 C3.94954,-0.669039098 2.30599333,0.970635338 3.37588667,2.01829248 C4.69660667,3.31280752 5.73321333,4.76984459 6.54221333,6.43035707 L7.23586,4.7257394 C5.85475333,4.97180098 3.89844667,5.37880534 2.83088,4.17480932 C2.53979333,3.84747669 2.234,3.29119323 2.53902,2.89035865 C2.63966,2.75879925 3.20402667,2.42842857 3.36272667,2.65360526 C4.21585333,3.86527669 6.23022667,2.70693835 5.36780667,1.4812812" id="Fill-36" fill-opacity="0.8" fill="#FFFFFF" mask="url(#mask-24)"></path>
                </g>
                <g id="Group-41" transform="translate(10.666667, 10.325673)">
                    <mask id="mask-26" fill="white">
                        <use xlink:href="#path-25"></use>
                    </mask>
                    <g id="Clip-40"></g>
                    <path d="M1.58328,0.363227068 C1.32316,0.67813985 1.06304,0.992316541 0.802926667,1.30796541 C0.303586667,1.9130985 0.38178,2.67675865 1.03826667,3.13019023 C2.34428,4.0332391 4.07453333,2.59552105 3.68436,1.15552782 C3.52023333,0.550461654 2.85832667,0.179806767 2.25602667,0.345427068 C1.64676,0.511783459 1.27980667,1.16563233 1.44470667,1.77223759 C1.40135333,1.6128406 1.47644667,1.41864662 1.52986,1.27162932 C1.55928,1.23837143 1.58792667,1.20504662 1.61656667,1.17178872 C1.5407,1.24452782 1.53682667,1.24994812 1.60573333,1.18885263 C1.69011333,1.13699173 1.74817333,1.09443233 1.85114,1.08439474 C1.93784667,1.06271353 2.02068,1.07663233 2.10196667,1.12380902 C2.29783333,1.19962632 2.33422,1.20042932 2.21035333,1.12615113 C2.28854,1.7335594 2.36750667,2.34177068 2.4457,2.94917895 C2.70581333,2.63500226 2.96516,2.31928647 3.22528,2.00517669 C3.62474667,1.52156541 3.69829333,0.835997744 3.22528,0.363227068 C2.8142,-0.0469090226 1.98429333,-0.121923308 1.58328,0.363227068" id="Fill-39" fill-opacity="0.8" fill="#FFFFFF" mask="url(#mask-26)"></path>
                </g>
                <path d="M22.0985333,2.03910376 C21.9258933,3.35061579 23.4564133,4.25908496 24.60372,3.92556917 C25.8013533,3.57579248 26.3262333,2.10488346 25.9213467,0.99606391 C25.7069067,0.407994737 25.1324733,0.0102383459 24.49302,0.18516015 C23.9255533,0.342215038 23.46648,1.0215594 23.6816933,1.61350977 C23.70492,1.67621128 23.7475,1.93926316 23.7320133,1.69013008 C23.73434,1.72726917 23.7134333,1.99112406 23.7405333,1.83253008 C23.7536933,1.74506917 23.7475,1.75825188 23.7227267,1.87194436 L23.7676267,1.77444586 C23.7087933,1.87120827 23.7033733,1.88512707 23.7544667,1.81626917 C23.7831133,1.76982857 23.82414,1.73657068 23.8767867,1.71723158 C23.73666,1.82938496 23.85898,1.71877068 23.96194,1.69789248 C24.0811667,1.67233008 24.1523867,1.70485188 24.2569,1.74814737 C24.08968,1.67928947 24.2870933,1.78066917 24.3397333,1.87040526 C24.38154,1.94080226 24.3908267,2.26347744 24.42102,2.03910376 C24.50076,1.43477368 23.82956,0.85292782 23.25978,0.878423308 C22.5622533,0.909406015 22.1836933,1.39067519 22.0985333,2.03910376" id="Fill-42" fill-opacity="0.8" fill="#FFFFFF"></path>
                <g id="Group-45" transform="translate(5.333333, 67.874545)">
                    <mask id="mask-28" fill="white">
                        <use xlink:href="#path-27"></use>
                    </mask>
                    <g id="Clip-44"></g>
                    <path d="M1.80969333,4.68367519 C8.5782,0.587319699 16.1649933,2.98524068 23.3918,4.1397112 C29.6865133,5.14561865 35.7335,4.67748534 41.7193267,2.40491383 C43.1027533,1.8795194 42.5027733,-0.365194436 41.10154,0.16638985 C32.9310333,3.26921759 25.67016,2.05903842 17.3223667,0.676306316 C11.5664667,-0.27698406 5.78424667,-0.434835263 0.637612667,2.67882639 C-0.639756,3.4518282 0.526907333,5.46053812 1.80969333,4.68367519" id="Fill-43" fill-opacity="0.8" fill="#FFFFFF" mask="url(#mask-28)"></path>
                </g>
            </g>
        </g>
    </g>
</svg>