<?xml version="1.0" encoding="UTF-8"?>
<svg width="52px" height="52px" viewBox="0 0 52 52" version="1.1" xmlns="http://www.w3.org/2000/svg" xmlns:xlink="http://www.w3.org/1999/xlink">
    <!-- Generator: Sketch 49.2 (51160) - http://www.bohemiancoding.com/sketch -->
    <title>Instagram</title>
    <desc>Created with Sketch.</desc>
    <defs></defs>
    <g id="Desktop" stroke="none" stroke-width="1" fill="none" fill-rule="evenodd">
        <g id="Home_Scene-09---Graciasez" transform="translate(-639.000000, -1516.000000)">
            <g id="Component/Footer/Kelp-Challenge" transform="translate(0.000000, 1377.000000)">
                <g id="Instagram" transform="translate(640.000000, 140.000000)">
                    <g id="Icons">
                        <g>
                            <g id="Icon-Set">
                                <g id="Group">
                                    <g id="Instagram">
                                        <circle id="Oval-1-Copy-20" stroke="#FFFFFF" cx="25" cy="25" r="25"></circle>
                                        <g id="Group-6" transform="translate(12.857143, 12.142857)" fill="#FFFFFF">
                                            <path d="M22.6561111,4.69234546 C22.6561111,5.55629316 21.9566666,6.25646061 21.0936111,6.25646061 L19.5311111,6.25646061 C18.6683334,6.25646061 17.9686111,5.55629316 17.9686111,4.69234546 L17.9686111,3.91014885 C17.9686111,3.04647922 18.6683334,2.34631176 19.5311111,2.34631176 L21.0936111,2.34631176 C21.9566666,2.34631176 22.6561111,3.04647922 22.6561111,3.91014885 L22.6561111,4.69234546 Z M20.3122222,0 L6.24972222,0 L6.24972222,7.82057579 L8.18777779,7.82057579 C9.32333336,6.77421749 10.8347222,6.12994108 12.4997222,6.12994108 C14.165,6.12994108 15.6763889,6.77421749 16.8122222,7.82057579 L23.4375,7.82057579 L23.4375,20.333497 C23.4375,22.0613924 22.0383334,23.4617273 20.3122222,23.4617273 L4.68722222,23.4617273 C2.96138889,23.4617273 1.5625,22.0613924 1.5625,20.333497 L1.5625,8.60277236 L1.5625,7.82057579 L1.5625,1.20179657 C0.605555556,2.06101716 0,3.3042454 0,4.69234546 L0,20.333497 C0,22.925062 2.09861111,25.0258425 4.68722222,25.0258425 L20.3122222,25.0258425 C22.9011111,25.0258425 25,22.925062 25,20.333497 L25,7.82057579 L25,5.47454207 L25,4.69234546 C25,2.10078044 22.9011111,0 20.3122222,0 L20.3122222,0 Z" id="Fill-33"></path>
                                            <path d="M4.41964286,7.82057579 L4.41964286,0 C3.87103174,0 3.3465873,0.099269175 2.85714286,0.272503618 L2.85714286,7.82057579 L4.41964286,7.82057579 Z" id="Fill-35"></path>
                                            <path d="M9.44214286,13.3349586 C9.44214286,11.5806471 10.8629762,10.1583451 12.6154762,10.1583451 C14.3679762,10.1583451 15.7888095,11.5806471 15.7888095,13.3349586 C15.7888095,15.0892702 14.3679762,16.5115723 12.6154762,16.5115723 C10.8629762,16.5115723 9.44214286,15.0892702 9.44214286,13.3349586 M17.3738095,13.3349586 C17.3738095,10.7041865 15.2435317,8.57142857 12.6154762,8.57142857 C9.98742064,8.57142857 7.85714286,10.7041865 7.85714286,13.3349586 C7.85714286,15.9657309 9.98742064,18.0982106 12.6154762,18.0982106 C15.2435317,18.0982106 17.3738095,15.9657309 17.3738095,13.3349586" id="Fill-37"></path>
                                        </g>
                                    </g>
                                </g>
                            </g>
                        </g>
                    </g>
                </g>
            </g>
        </g>
    </g>
</svg>