<?xml version="1.0" encoding="UTF-8"?>
<svg width="626px" height="431px" viewBox="0 0 626 431" version="1.1" xmlns="http://www.w3.org/2000/svg" xmlns:xlink="http://www.w3.org/1999/xlink">
    <!-- Generator: Sketch 49 (51002) - http://www.bohemiancoding.com/sketch -->
    <title>Asset/Logo.CC_KelpChallene_SmallIdentity/Leaves</title>
    <desc>Created with Sketch.</desc>
    <defs>
        <linearGradient x1="74.9039952%" y1="54.5850283%" x2="80.2614211%" y2="112.791346%" id="linearGradient-1">
            <stop stop-color="#8BC53F" offset="0%"></stop>
            <stop stop-color="#006A53" offset="100%"></stop>
        </linearGradient>
        <linearGradient x1="86.876054%" y1="61.5629378%" x2="73.5295709%" y2="114.166579%" id="linearGradient-2">
            <stop stop-color="#8BC53F" offset="0%"></stop>
            <stop stop-color="#006A53" offset="100%"></stop>
        </linearGradient>
    </defs>
    <g id="Desktop" stroke="none" stroke-width="1" fill="none" fill-rule="evenodd">
        <g id="Home_Scene-01---Landing" transform="translate(-382.000000, -99.000000)" fill-rule="nonzero">
            <g id="SCENE-01-Home">
                <g id="Asset/Logo.CC_KelpChallene_SmallIdentity/Leaves" transform="translate(382.000000, 99.000000)">
                    <path d="M45.1366028,56.159667 C44.6090168,52.3468366 45.8758686,48.504547 48.5683907,45.7512498 C51.2609127,42.9979526 55.076528,41.6430543 58.9045498,42.080952 L74.2986323,42.080952 C78.1266541,41.6430543 81.9422694,42.9979526 84.6347914,45.7512498 C87.3273134,48.504547 88.5941653,52.3468366 88.0665793,56.159667 L88.0665793,138.899192 L119.28838,138.899192 L169.590171,52.260946 C172.57653,46.0211595 179.048853,42.2102602 185.959935,42.6224411 L202.438107,42.6224411 C213.279011,42.6224411 217.506963,49.986692 212.19492,59.3003035 L154.521316,155.252161 L154.521316,155.901948 L216.531282,263.116778 C222.168551,272.863581 217.83219,279.902938 206.774469,279.902938 L188.344933,279.902938 C181.377366,280.311249 174.858637,276.455435 171.866761,270.156135 L119.28838,176.04534 L88.0665793,176.04534 L88.0665793,265.824223 C88.6399838,269.646593 87.388399,273.516635 84.684707,276.281354 C81.981015,279.046073 78.1372704,280.386372 74.2986323,279.902938 L58.9045498,279.902938 C55.0659116,280.386372 51.222167,279.046073 48.518475,276.281354 C45.814783,273.516635 44.5631982,269.646593 45.1366028,265.824223 L45.1366028,56.159667 Z" id="Shape" fill="url(#linearGradient-1)"></path>
                    <path d="M283.995284,83 C332.638302,83 360,117.436537 360,164.326538 C359.766417,172.30866 353.239878,178.674351 345.233369,178.72924 L240.672596,178.72924 C241.235984,191.744097 246.966644,204.001004 256.600919,212.797215 C266.235193,221.593425 278.981821,226.206508 292.030068,225.619241 C305.109742,225.529824 317.901182,221.777586 328.946645,214.790142 C337.415741,210.783375 343.387541,211.757994 347.839245,219.554946 L351.856638,226.160696 C353.947724,229.215326 354.622001,233.018823 353.707901,236.603393 C352.793801,240.187962 350.379458,243.207991 347.079198,244.895039 C329.723818,255.940312 309.577535,261.836763 288.989879,261.896725 C264.65413,263.076308 240.922572,254.109366 223.479407,237.143667 C206.036243,220.177968 196.452677,196.741709 197.024173,172.448362 C197.024173,119.818939 232.637811,83 283.995284,83 Z M317.545937,152.955983 C316.894468,129.131964 302.453572,115.162426 283.01808,115.162426 C261.541789,115.291159 243.65762,131.629918 241.649799,152.955983 L317.545937,152.955983 Z" id="Shape" fill="url(#linearGradient-2)"></path>
                    <path d="M373.116897,14.177281 C372.592182,10.3597075 373.852138,6.51263836 376.530003,3.75591616 C379.207869,0.999193963 383.002714,-0.357389759 386.809897,0.081052718 L401.473269,0.081052718 C405.280452,-0.357389759 409.075297,0.999193963 411.753163,3.75591616 C414.431028,6.51263836 415.690984,10.3597075 415.166269,14.177281 L415.166269,213.042532 C415.166269,229.849573 422.174498,232.885684 428.535814,233.536279 C431.537609,233.638581 434.360921,234.995497 436.325678,237.280177 C438.290436,239.564856 439.218539,242.5702 438.886428,245.572289 L438.886428,257.499867 C439.408344,261.403691 438.113275,265.331697 435.375547,268.148545 C432.637818,270.965392 428.762598,272.357093 424.869971,271.921393 C402.120182,271.921393 373.116897,265.849172 373.116897,216.83767 L373.116897,14.177281 Z" id="Shape" fill="url(#linearGradient-2)"></path>
                    <path d="M452.105076,96.1900291 C451.646745,92.319281 452.980819,88.4511695 455.724764,85.6948442 C458.468709,82.9385189 462.319446,81.5984254 466.172808,82.0588247 L476.994141,82.0588247 C485.975847,82.0588247 490.737234,87.059097 490.737234,93.7985945 L490.737234,101.516406 C490.737234,105.21226 490.737234,108.255904 490.737234,108.255904 L491.386514,108.255904 C502.786425,88.8513875 523.833757,77.2585708 546.250671,78.0368665 C592.457762,78.0368665 622,114.669296 622,167.824366 C622,220.979435 588.562082,257.611865 543.653551,257.611865 C523.762122,258.344669 505.008,248.302875 494.5247,231.306084 L493.87542,231.306084 C494.485599,236.245234 494.738759,241.222299 494.632914,246.1982 L494.632914,306.744976 C495.18191,310.635921 493.877465,314.559702 491.111136,317.338512 C488.344806,320.117323 484.438649,321.427653 480.565181,320.87618 L466.172808,320.87618 C462.309427,321.381229 458.431582,320.055708 455.676722,317.288419 C452.921862,314.521129 451.602295,310.625788 452.105076,306.744976 L452.105076,96.1900291 Z M536.295045,221.631644 C559.777337,221.631644 579.580376,202.391466 579.580376,168.476575 C579.580376,134.561684 562.15803,114.125789 537.377178,114.125789 C515.734512,114.125789 494.091847,130.213621 494.091847,168.476575 C493.009714,195.325863 508.051366,221.631644 536.295045,221.631644 Z" id="Shape" fill="url(#linearGradient-2)"></path>
                    <path d="M51.3781347,296.005851 C63.0195627,295.836839 74.419395,299.333479 83.9646896,306.001038 C85.2844283,306.866031 86.1628266,308.262316 86.3713618,309.82664 C86.5798969,311.390963 86.0979517,312.968664 85.0509081,314.149289 L82.5526055,318.169093 C80.5974122,321.428394 77.881866,321.64568 74.5145887,319.581457 C67.9014464,315.100658 60.1251753,312.646494 52.1384877,312.519639 C43.0562887,312.26576 34.2805157,315.815924 27.928511,322.313578 C21.5765063,328.811232 18.2251245,337.666295 18.6829581,346.742293 C18.0469864,356.014308 21.3077124,365.131248 27.6793152,371.895971 C34.0509181,378.660693 42.9555052,382.459651 52.2471095,382.377311 C61.1060813,382.12939 69.6600826,379.087365 76.6870256,373.685843 C77.7981201,372.553552 79.3723023,372.002151 80.9469239,372.193697 C82.5215455,372.385243 83.9176932,373.297971 84.7250425,374.663634 L87.5492106,378.466151 C88.6180285,379.617701 89.1359608,381.175733 88.9693369,382.738141 C88.8027131,384.300549 87.9678582,385.714254 86.6802358,386.614402 C76.7204084,394.664871 64.2922658,399.038602 51.4867566,398.999743 C23.0514061,398.999743 0,375.943775 0,347.502797 C0,319.061819 23.0514061,296.005851 51.4867566,296.005851 L51.3781347,296.005851 Z" id="Shape" fill="#1E6D75"></path>
                    <path d="M101.032435,280.928814 C100.852718,279.30052 101.426468,277.679415 102.588707,276.53164 C103.750946,275.383865 105.372889,274.836602 106.988154,275.047213 L112.51073,275.047213 C114.118454,274.828512 115.735496,275.377435 116.882679,276.53132 C118.029861,277.685205 118.575595,279.311696 118.358163,280.928814 L118.358163,325.912167 C118.515179,327.942245 118.515179,329.981525 118.358163,332.011604 C123.376715,322.993295 132.881053,317.441054 143.155612,317.52544 C158.857053,317.52544 167.953061,325.803248 167.953061,344.755072 L167.953061,385.054928 C168.170492,386.672046 167.624758,388.298537 166.477576,389.452422 C165.330394,390.606307 163.713352,391.15523 162.105627,390.936528 L156.149908,390.936528 C154.524985,391.193437 152.875059,390.661546 151.701335,389.50243 C150.527612,388.343313 149.968628,386.693785 150.194189,385.054928 L150.194189,348.458302 C150.194189,339.74482 148.028473,333.863219 139.365609,333.863219 C133.457759,334.135941 127.917775,336.826941 124.032028,341.311375 C120.146281,345.795809 118.252822,351.683542 118.791307,357.607459 L118.791307,385.054928 C119.008738,386.672046 118.463004,388.298537 117.315822,389.452422 C116.16864,390.606307 114.551598,391.15523 112.943873,390.936528 L106.988154,390.936528 C105.372889,391.14714 103.750946,390.599877 102.588707,389.452102 C101.426468,388.304327 100.852718,386.683222 101.032435,385.054928 L101.032435,280.928814 Z" id="Shape" fill="#1E6D75"></path>
                    <path d="M220.386851,351.119536 L223.336439,351.119536 L223.336439,349.491848 C223.639524,345.932099 222.291432,342.429422 219.674932,339.97835 C217.058433,337.527279 213.45929,336.39551 209.899427,336.904393 C204.659156,337.034567 199.526768,338.411405 194.933,340.919357 C191.437192,342.438532 188.706092,341.89597 187.067432,338.532081 L185.64726,335.92778 C184.729807,334.614903 184.455527,332.961751 184.900333,331.425874 C185.345139,329.889997 186.461848,328.634313 187.941384,328.006364 C195.195689,324.240416 203.243999,322.232515 211.428843,322.146687 C219.322222,321.320053 227.177828,324.015985 232.873978,329.506351 C238.570128,334.996717 241.519211,342.715135 240.924722,350.576973 L240.924722,389.315952 C241.152279,390.9487 240.588349,392.59208 239.40424,393.746876 C238.22013,394.901672 236.555605,395.431581 234.916302,395.175629 L230.218811,395.175629 C228.603898,395.403023 226.97628,394.854738 225.833777,393.698472 C224.691274,392.542206 224.16981,390.915521 224.428879,389.315952 L224.428879,386.494626 C224.338355,385.483838 224.338355,384.467063 224.428879,383.456275 C219.873972,391.652965 211.240166,396.790278 201.815372,396.91183 C195.68827,397.46186 189.61164,395.420557 185.078341,391.289414 C180.545041,387.158271 177.975209,381.320152 178.00018,375.209321 C178.327912,354.70045 204.218739,351.119536 220.386851,351.119536 Z M206.949839,383.6733 C216.594422,382.759162 223.837577,374.516275 223.445683,364.900629 L223.445683,362.296328 L220.496095,362.296328 C211.428843,362.296328 196.134684,363.706991 196.134684,374.341221 C196.297148,376.987396 197.547594,379.450879 199.592858,381.154115 C201.638122,382.85735 204.298343,383.650554 206.949839,383.347762 L206.949839,383.6733 Z" id="Shape" fill="#1E6D75"></path>
                    <path d="M254.044259,298.885116 C253.837203,297.318088 254.363717,295.743207 255.475218,294.604902 C256.58672,293.466597 258.162665,292.888319 259.758326,293.033257 L266.021823,293.033257 C267.635538,292.852534 269.243699,293.415029 270.381319,294.5581 C271.518939,295.701172 272.059158,297.297351 271.845775,298.885116 L271.845775,376.693163 C271.845775,383.6287 274.812695,384.929113 277.559842,385.145848 C278.83489,385.228046 280.021824,385.815998 280.849969,386.775626 C281.678115,387.735253 282.076862,388.984735 281.955279,390.239133 L281.955279,395.007314 C282.16776,396.623802 281.615637,398.246972 280.457667,399.41009 C279.299698,400.573209 277.664196,401.147393 276.02144,400.96754 C266.35148,400.96754 254.044259,398.475082 254.044259,378.101944 L254.044259,298.885116 Z" id="Shape" fill="#1E6D75"></path>
                    <path d="M290.045558,288.877865 C289.833155,287.292056 290.370893,285.697844 291.503288,284.556181 C292.635683,283.414518 294.236458,282.852716 295.842761,283.033216 L302.077489,283.033216 C303.683793,282.852716 305.284567,283.414518 306.416963,284.556181 C307.549358,285.697844 308.087096,287.292056 307.874693,288.877865 L307.874693,374.599379 C307.874693,381.526371 310.827985,382.825181 313.562515,383.149884 C314.833918,383.17116 316.036425,383.725509 316.870812,384.674992 C317.705198,385.624476 318.093016,386.879821 317.937763,388.128659 L317.937763,392.890965 C318.194438,394.543798 317.648282,396.219609 316.464117,397.412661 C315.279953,398.605712 313.596498,399.176246 311.921797,398.952082 C302.405633,398.952082 290.045558,396.354461 290.045558,376.006425 L290.045558,288.877865 Z" id="Shape" fill="#1E6D75"></path>
                    <path d="M357.314971,321.022193 C366.185667,320.719803 374.750872,324.305669 380.795165,330.852293 C386.839458,337.398917 389.769163,346.263287 388.826503,355.152598 C388.710198,358.489174 385.989973,361.132909 382.675279,361.130854 L339.508797,361.130854 C339.730985,366.640524 342.142931,371.828918 346.202119,375.529013 C350.261306,379.229108 355.626907,381.130226 361.092038,380.80475 C366.57089,380.744878 371.921057,379.124468 376.524055,376.130841 C379.977374,374.500407 382.459447,374.935189 384.294022,378.087361 L385.912765,380.913445 C386.837492,382.1678 387.155456,383.773538 386.779249,385.289236 C386.403042,386.804933 385.372261,388.07105 383.970274,388.739525 C376.81464,393.443252 368.449634,395.936873 359.90496,395.913432 C349.666096,396.623307 339.606088,392.942702 332.206532,385.779546 C324.806976,378.61639 320.75681,368.637612 321.055127,358.304769 C320.502906,348.390183 324.119189,338.699331 331.0183,331.605626 C337.917412,324.51192 347.462181,320.670505 357.314971,321.022193 Z M371.344078,350.369993 C371.706946,346.305365 370.36015,342.273845 367.631575,339.256936 C364.903,336.240027 361.042964,334.514498 356.991222,334.500442 C348.0567,334.522173 340.614293,341.405434 339.832546,350.369993 L371.344078,350.369993 Z" id="Shape" fill="#1E6D75"></path>
                    <path d="M400.283467,338.580105 C400.078546,336.986378 400.61329,335.386455 401.737558,334.229557 C402.861826,333.072658 404.454389,332.48353 406.068094,332.627586 L411.52529,332.627586 C413.138995,332.48353 414.731558,333.072658 415.855826,334.229557 C416.980094,335.386455 417.514838,336.986378 417.309917,338.580105 L417.309917,342.909211 C417.369959,343.954564 417.369959,345.002459 417.309917,346.047812 C422.265833,336.644408 432.151236,330.821606 442.849591,331.004171 C458.784601,331.004171 467.952689,339.229471 467.952689,358.061079 L467.952689,398.105303 C468.171843,399.712164 467.621784,401.328338 466.465512,402.474903 C465.309239,403.621469 463.679382,404.16691 462.058918,403.949596 L455.946859,403.949596 C454.326395,404.16691 452.696538,403.621469 451.540266,402.474903 C450.383993,401.328338 449.833934,399.712164 450.053088,398.105303 L450.053088,362.281957 C450.053088,353.623746 447.761066,347.779454 439.138698,347.779454 C433.250464,347.918078 427.668601,350.410319 423.660817,354.69016 C419.653033,358.970002 417.559482,364.674198 417.855636,370.507257 L417.855636,398.105303 C418.114468,399.700673 417.593481,401.323087 416.452025,402.476317 C415.310568,403.629546 413.684442,404.176392 412.071009,403.949596 L405.849807,403.949596 C404.236374,404.176392 402.610247,403.629546 401.468791,402.476317 C400.327335,401.323087 399.806348,399.700673 400.06518,398.105303 L400.283467,338.580105 Z" id="Shape" fill="#1E6D75"></path>
                    <path d="M495.684053,413.381298 C500.322297,415.118846 505.243394,415.998125 510.202442,415.975377 C521.118525,415.975377 530.506355,411.435739 530.506355,398.681518 L530.506355,393.385273 C530.506355,391.763974 530.506355,389.818415 530.506355,389.818415 C526.609667,396.925254 518.898591,401.143594 510.748247,400.627077 C489.789369,400.627077 478,384.089824 478,364.41806 C478,344.746295 488.916082,329.181822 510.748247,329.181822 C519.570001,328.043818 528.20681,332.319727 532.580411,339.990484 C532.537226,339.414815 532.537226,338.836767 532.580411,338.261098 L532.580411,335.234673 C532.580411,332.640594 534.545306,330.478862 538.365934,330.478862 L543.169011,330.478862 C544.772077,330.298608 546.369627,330.859643 547.499741,331.999749 C548.629855,333.139855 549.166509,334.731893 548.954534,336.315539 L548.954534,397.384478 C548.954534,421.812054 529.523908,430.999417 511.730694,430.999417 C504.568354,431.031393 497.462057,429.748722 490.771816,427.216385 C489.185608,426.831074 487.879444,425.720997 487.254336,424.226963 C486.629228,422.732929 486.759869,421.033462 487.606152,419.650322 L488.806921,416.407723 C489.268706,415.069426 490.273015,413.982311 491.578218,413.407929 C492.883421,412.833547 494.371362,412.823896 495.684053,413.381298 Z M530.942999,364.634233 C530.942999,348.313154 522.755937,343.989689 513.477267,343.989689 C502.561185,343.989689 496.229857,351.771925 496.229857,363.553367 C496.229857,375.334808 502.670346,385.17069 514.241393,385.17069 C522.755937,385.49495 530.942999,380.522966 530.942999,364.634233 Z" id="Shape" fill="#1E6D75"></path>
                    <path d="M594.349523,324.012159 C603.210435,323.812546 611.731767,327.424086 617.754713,333.931827 C623.777659,340.439567 626.724354,349.219129 625.848278,358.046286 C625.730814,361.394778 622.983465,364.047955 619.63572,364.045892 L576.038828,364.045892 C576.26323,369.575239 578.699226,374.782162 582.798888,378.495471 C586.898549,382.208779 592.31765,384.116687 597.837274,383.790048 C603.33725,383.733303 608.706691,382.105981 613.314171,379.099448 C616.910915,377.463192 619.417736,377.899526 621.270604,381.062955 L622.905487,383.899132 C623.839434,385.157967 624.160569,386.76944 623.780611,388.29055 C623.400652,389.81166 622.359594,391.082298 620.943627,391.753161 C613.716645,396.473687 605.268232,398.976213 596.638359,398.952688 C586.446026,399.47042 576.497956,395.720735 569.178976,388.602535 C561.859997,381.484335 557.830008,371.639418 558.055109,361.427882 C557.503495,351.536476 561.112328,341.865284 568.007323,334.757269 C574.902318,327.649254 584.454423,323.752905 594.349523,324.012159 Z M608.518513,353.464769 C608.885,349.385625 607.524774,345.339707 604.768993,342.312024 C602.013211,339.284341 598.114688,337.552649 594.022546,337.538543 C584.998938,337.560351 577.482323,344.468195 576.692781,353.464769 L608.518513,353.464769 Z" id="Shape" fill="#1E6D75"></path>
                </g>
            </g>
        </g>
    </g>
</svg>