<?xml version="1.0" encoding="UTF-8"?>
<svg width="52px" height="52px" viewBox="0 0 52 52" version="1.1" xmlns="http://www.w3.org/2000/svg" xmlns:xlink="http://www.w3.org/1999/xlink">
    <!-- Generator: Sketch 49.2 (51160) - http://www.bohemiancoding.com/sketch -->
    <title>Twitter</title>
    <desc>Created with Sketch.</desc>
    <defs></defs>
    <g id="Desktop" stroke="none" stroke-width="1" fill="none" fill-rule="evenodd">
        <g id="Home_Scene-09---Graciasez" transform="translate(-709.000000, -1516.000000)">
            <g id="Component/Footer/Kelp-Challenge" transform="translate(0.000000, 1377.000000)">
                <g id="Twitter" transform="translate(710.000000, 140.000000)">
                    <g id="Icons">
                        <g>
                            <g id="Icon-Set">
                                <g id="Group">
                                    <g id="Twitter">
                                        <circle id="Oval-1" stroke="#FFFFFF" cx="25" cy="25" r="25"></circle>
                                        <path d="M36.4515238,15.4379524 C35.7458889,15.8899365 34.1257619,16.5467301 33.3267619,16.5467301 L33.3267619,16.5480794 C32.4144286,15.595 31.1299841,15 29.7054921,15 C26.9388095,15 24.6953492,17.2434603 24.6953492,20.0090635 C24.6953492,20.3933174 24.739873,20.768127 24.8221746,21.1275556 L24.8213651,21.1275556 C21.0684127,21.0290635 16.9638571,19.148 14.4929206,15.9285238 C12.9737143,18.558127 14.2883809,21.4826666 16.0123969,22.5482699 C15.422254,22.5927936 14.335873,22.4802699 13.8245238,21.9813334 C13.790254,23.7266666 14.6294603,26.0392064 17.6894603,26.8781429 C17.100127,27.1952064 16.0569206,27.1042699 15.6033174,27.0368095 C15.7625238,28.5101429 17.8257301,30.4362699 20.081873,30.4362699 C19.277746,31.3664127 16.2522857,33.0534603 12.8571429,32.516746 C15.1629365,33.9196508 17.8502857,34.7321429 20.6946826,34.7321429 C28.7777778,34.7321429 35.0550952,28.1812064 34.717254,20.0997301 C34.7159048,20.0908254 34.7159048,20.0819206 34.7150952,20.0722064 C34.7159048,20.0514286 34.717254,20.0306508 34.717254,20.0090635 C34.717254,19.9839683 34.7150952,19.9602222 34.7142857,19.9359365 C35.4501429,19.4326826 36.4374921,18.5424762 37.1428571,17.3708254 C36.7337778,17.5961429 35.5065397,18.0473174 34.3645714,18.1593016 C35.0974603,17.7637143 36.1833016,16.4682064 36.4515238,15.4379524" id="Fill-1" fill="#FFFFFF"></path>
                                    </g>
                                </g>
                            </g>
                        </g>
                    </g>
                </g>
            </g>
        </g>
    </g>
</svg>