<?xml version="1.0" encoding="UTF-8"?>
<svg width="26px" height="26px" viewBox="0 0 26 26" version="1.1" xmlns="http://www.w3.org/2000/svg" xmlns:xlink="http://www.w3.org/1999/xlink">
    <!-- Generator: Sketch 49 (51002) - http://www.bohemiancoding.com/sketch -->
    <title>Icon/Social/Twitter/White</title>
    <desc>Created with Sketch.</desc>
    <defs></defs>
    <g id="Desktop" stroke="none" stroke-width="1" fill="none" fill-rule="evenodd">
        <g id="Home_Scene-01---Landing" transform="translate(-746.000000, -667.000000)">
            <g id="Icon/Social/Twitter/White" transform="translate(747.000000, 668.000000)">
                <circle id="Oval-1" stroke="#05292E" cx="12" cy="12" r="12"></circle>
                <path d="M17.4967314,7.41021713 C17.1580267,7.62716952 16.3803657,7.94243047 15.9968457,7.94243047 L15.9968457,7.94307809 C15.5589257,7.4856 14.9423924,7.2 14.2586362,7.2 C12.9306286,7.2 11.8537676,8.27686094 11.8537676,9.60435048 C11.8537676,9.78879237 11.875139,9.96870096 11.9146438,10.1412267 L11.9142552,10.1412267 C10.1128381,10.0939505 8.14265143,9.19104 6.95660191,7.64569142 C6.22738286,8.90790096 6.85842285,10.31168 7.68595049,10.8231695 C7.40268192,10.8445409 6.88121904,10.7905295 6.63577142,10.55104 C6.61932192,11.3888 7.02214094,12.4988191 8.49094094,12.9015086 C8.20806096,13.0536991 7.70732191,13.0100495 7.48959237,12.9776686 C7.56601142,13.6848686 8.55635047,14.6094095 9.63929904,14.6094095 C9.25331808,15.0558781 7.80109714,15.8656609 6.17142857,15.6080381 C7.27820952,16.2814324 8.56813714,16.6714286 9.93344763,16.6714286 C13.8133333,16.6714286 16.8264457,13.5269791 16.6642819,9.64787047 C16.6636343,9.64359621 16.6636343,9.63932191 16.6632457,9.63465905 C16.6636343,9.62468571 16.6642819,9.61471238 16.6642819,9.60435048 C16.6642819,9.59230478 16.6632457,9.58090666 16.6628571,9.56924952 C17.0160686,9.32768763 17.4899962,8.90038858 17.8285714,8.33799621 C17.6322133,8.44614857 17.0431391,8.66271237 16.4949943,8.71646475 C16.8467809,8.52658286 17.3679848,7.90473905 17.4967314,7.41021713" id="Fill-1" fill="#05292E"></path>
            </g>
        </g>
    </g>
</svg>