<?xml version="1.0" encoding="UTF-8"?>
<svg width="1440px" height="152px" viewBox="0 0 1440 152" version="1.1" xmlns="http://www.w3.org/2000/svg" xmlns:xlink="http://www.w3.org/1999/xlink">
    <!-- Generator: Sketch 49.1 (51147) - http://www.bohemiancoding.com/sketch -->
    <title>wave-4</title>
    <desc>Created with Sketch.</desc>
    <defs></defs>
    <g id="Desktop" stroke="none" stroke-width="0" fill="none" fill-rule="evenodd" opacity="0.6">
        <g id="Home_Scene-01---Landing" transform="translate(0.000000, -788.000000)" fill="#B6EFE0" fill-rule="nonzero">
            <g id="SCENE-01-Home">
                <g id="Kelp_SurfaceScene-FPO-Copy">
                    <g id="Layer_1-2" transform="translate(0.000000, 659.795210)">
                        <path d="M1439.84505,195.487123 C1393.0563,146.963971 1353.92989,136.507602 1327.684,135.38799 C1279.91558,133.338702 1257.66831,161.413953 1164.55564,192.053315 C1116.91718,207.732871 1093.08046,215.545158 1066.99951,216.789726 C961.206248,221.743006 931.981395,141.975703 836.189656,150.082888 C783.412982,154.546338 789.450885,178.997848 725.453107,187.439917 C648.97966,197.521416 617.660535,165.602499 544.016106,162.088719 C474.900104,158.789865 409.647761,191.628462 373.340368,206.313363 C347.164457,216.904686 333.929052,224.137175 324.89219,228.115793 C274.974523,250.073169 180.592294,246.969247 0.354876779,128.520375 L0.354876779,392.798612 L1439.85505,392.798612 L1439.84505,195.487123 Z" id="wave-4"></path>
                    </g>
                </g>
            </g>
        </g>
    </g>
</svg>